<svg width="2494" height="2355" viewBox="0 0 2494 2355" fill="none" xmlns="http://www.w3.org/2000/svg">
<g filter="url(#filter0_d_12_10)">
<path d="M120 139C120 97.5787 153.579 64 195 64H2153.35C2194.77 64 2228.35 97.5786 2228.35 139V1577C2228.35 1618.42 2194.77 1652 2153.35 1652H195C153.579 1652 120 1618.42 120 1577V139Z" fill="white"/>
<path d="M195 51C146.399 51 107 90.399 107 139V1577C107 1625.6 146.399 1665 195 1665H2153.35C2201.95 1665 2241.35 1625.6 2241.35 1577V139C2241.35 90.3989 2201.95 51 2153.35 51H195Z" stroke="#363636" stroke-width="26"/>
</g>
<path d="M905 1677H1442V2144C1442 2185.42 1408.42 2219 1367 2219H980C938.579 2219 905 2185.42 905 2144V1677Z" fill="#4C4C4C"/>
<rect x="212.068" y="94.0189" width="786.257" height="86.0542" rx="43.0271" fill="#D9D9D9" fill-opacity="0.41"/>
<rect x="212.568" y="94.5189" width="785.257" height="85.0542" rx="42.5271" stroke="#E0F2FE" stroke-opacity="0.59"/>
<rect x="563.765" y="359.186" width="1220.82" height="86.0542" rx="43.0271" fill="#D9D9D9" fill-opacity="0.41"/>
<rect x="564.265" y="359.686" width="1219.82" height="85.0542" rx="42.5271" stroke="#E0F2FE" stroke-opacity="0.59"/>
<rect x="1749.59" y="94.0189" width="390.366" height="86.0542" rx="43.0271" fill="#E0F2FE" fill-opacity="0.59"/>
<rect x="381.472" y="565.316" width="1587.24" height="862.543" rx="75" fill="#D9D9D9" fill-opacity="0.41"/>
<rect x="381.972" y="565.816" width="1586.24" height="861.543" rx="74.5" stroke="#E0F2FE" stroke-opacity="0.59"/>
<path d="M120 1486.9H2228.35V1577C2228.35 1618.42 2194.77 1652 2153.35 1652H195C153.579 1652 120 1618.42 120 1577V1486.9Z" fill="black" fill-opacity="0.58"/>
<g filter="url(#filter1_d_12_10)">
<rect x="1523" y="1001" width="891.404" height="1217.79" rx="30" fill="white" shape-rendering="crispEdges"/>
<rect x="1510" y="988" width="917.404" height="1243.79" rx="43" stroke="black" stroke-opacity="0.79" stroke-width="26" shape-rendering="crispEdges"/>
</g>
<rect x="1561.93" y="1024.02" width="332.427" height="65.9922" rx="32.9961" fill="#D9D9D9" fill-opacity="0.41"/>
<rect x="1562.43" y="1024.52" width="331.427" height="64.9922" rx="32.4961" stroke="#E0F2FE" stroke-opacity="0.59"/>
<rect x="1710.62" y="1227.37" width="516.158" height="65.9922" rx="32.9961" fill="#D9D9D9" fill-opacity="0.41"/>
<rect x="1711.12" y="1227.87" width="515.158" height="64.9922" rx="32.4961" stroke="#E0F2FE" stroke-opacity="0.59"/>
<rect x="2211.99" y="1024.02" width="165.046" height="65.9922" rx="32.9961" fill="#E0F2FE" fill-opacity="0.59"/>
<rect x="1633.55" y="1385.44" width="671.083" height="661.456" rx="75" fill="#D9D9D9" fill-opacity="0.41"/>
<rect x="1634.05" y="1385.94" width="670.083" height="660.456" rx="74.5" stroke="#E0F2FE" stroke-opacity="0.59"/>
<path d="M1523 2092.17H2414.4V2188.79C2414.4 2205.35 2400.97 2218.79 2384.4 2218.79H1553C1536.43 2218.79 1523 2205.35 1523 2188.79V2092.17Z" fill="black" fill-opacity="0.58"/>
<g filter="url(#filter2_d_12_10)">
<rect x="264" y="1331" width="474.732" height="888" rx="40" fill="white" shape-rendering="crispEdges"/>
<rect x="251" y="1318" width="500.732" height="914" rx="53" stroke="black" stroke-opacity="0.79" stroke-width="26" shape-rendering="crispEdges"/>
</g>
<rect x="284.731" y="1347.79" width="177.04" height="48.121" rx="24.0605" fill="#D9D9D9" fill-opacity="0.41"/>
<rect x="285.231" y="1348.29" width="176.04" height="47.121" rx="23.5605" stroke="#E0F2FE" stroke-opacity="0.59"/>
<rect x="363.922" y="1496.07" width="274.889" height="48.121" rx="24.0605" fill="#D9D9D9" fill-opacity="0.41"/>
<rect x="364.422" y="1496.57" width="273.889" height="47.121" rx="23.5605" stroke="#E0F2FE" stroke-opacity="0.59"/>
<rect x="630.933" y="1347.79" width="87.898" height="48.121" rx="24.0605" fill="#E0F2FE" fill-opacity="0.59"/>
<rect x="322.875" y="1611.33" width="357.397" height="482.329" rx="75" fill="#D9D9D9" fill-opacity="0.41"/>
<rect x="323.375" y="1611.83" width="356.397" height="481.329" rx="74.5" stroke="#E0F2FE" stroke-opacity="0.59"/>
<path d="M264 2126.67H738.732V2179C738.732 2201.09 720.824 2219 698.732 2219H304C281.909 2219 264 2201.09 264 2179V2126.67Z" fill="black" fill-opacity="0.58"/>
<defs>
<filter id="filter0_d_12_10" x="0.599998" y="0.599998" width="2307.15" height="1786.8" filterUnits="userSpaceOnUse" color-interpolation-filters="sRGB">
<feFlood flood-opacity="0" result="BackgroundImageFix"/>
<feColorMatrix in="SourceAlpha" type="matrix" values="0 0 0 0 0 0 0 0 0 0 0 0 0 0 0 0 0 0 127 0" result="hardAlpha"/>
<feMorphology radius="3" operator="erode" in="SourceAlpha" result="effect1_dropShadow_12_10"/>
<feOffset dx="-20" dy="36"/>
<feGaussianBlur stdDeviation="38.2"/>
<feComposite in2="hardAlpha" operator="out"/>
<feColorMatrix type="matrix" values="0 0 0 0 0 0 0 0 0 0 0 0 0 0 0 0 0 0 0.25 0"/>
<feBlend mode="normal" in2="BackgroundImageFix" result="effect1_dropShadow_12_10"/>
<feBlend mode="normal" in="SourceGraphic" in2="effect1_dropShadow_12_10" result="shape"/>
</filter>
<filter id="filter1_d_12_10" x="1403.6" y="937.6" width="1090.2" height="1416.59" filterUnits="userSpaceOnUse" color-interpolation-filters="sRGB">
<feFlood flood-opacity="0" result="BackgroundImageFix"/>
<feColorMatrix in="SourceAlpha" type="matrix" values="0 0 0 0 0 0 0 0 0 0 0 0 0 0 0 0 0 0 127 0" result="hardAlpha"/>
<feMorphology radius="3" operator="erode" in="SourceAlpha" result="effect1_dropShadow_12_10"/>
<feOffset dx="-20" dy="36"/>
<feGaussianBlur stdDeviation="38.2"/>
<feComposite in2="hardAlpha" operator="out"/>
<feColorMatrix type="matrix" values="0 0 0 0 0 0 0 0 0 0 0 0 0 0 0 0 0 0 0.25 0"/>
<feBlend mode="normal" in2="BackgroundImageFix" result="effect1_dropShadow_12_10"/>
<feBlend mode="normal" in="SourceGraphic" in2="effect1_dropShadow_12_10" result="shape"/>
</filter>
<filter id="filter2_d_12_10" x="144.6" y="1267.6" width="673.532" height="1086.8" filterUnits="userSpaceOnUse" color-interpolation-filters="sRGB">
<feFlood flood-opacity="0" result="BackgroundImageFix"/>
<feColorMatrix in="SourceAlpha" type="matrix" values="0 0 0 0 0 0 0 0 0 0 0 0 0 0 0 0 0 0 127 0" result="hardAlpha"/>
<feMorphology radius="3" operator="erode" in="SourceAlpha" result="effect1_dropShadow_12_10"/>
<feOffset dx="-20" dy="36"/>
<feGaussianBlur stdDeviation="38.2"/>
<feComposite in2="hardAlpha" operator="out"/>
<feColorMatrix type="matrix" values="0 0 0 0 0 0 0 0 0 0 0 0 0 0 0 0 0 0 0.25 0"/>
<feBlend mode="normal" in2="BackgroundImageFix" result="effect1_dropShadow_12_10"/>
<feBlend mode="normal" in="SourceGraphic" in2="effect1_dropShadow_12_10" result="shape"/>
</filter>
</defs>
</svg>
