<svg width="776" height="467" viewBox="0 0 776 467" fill="none" xmlns="http://www.w3.org/2000/svg">
<mask id="mask0_107_111" style="mask-type:luminance" maskUnits="userSpaceOnUse" x="12" y="12" width="752" height="443">
<path d="M744 12H32C20.9543 12 12 20.9543 12 32V435C12 446.046 20.9543 455 32 455H744C755.046 455 764 446.046 764 435V32C764 20.9543 755.046 12 744 12Z" fill="white"/>
</mask>
<g mask="url(#mask0_107_111)">
<path opacity="0.35" fill-rule="evenodd" clip-rule="evenodd" d="M90.2852 155.247C178.557 162.432 260.789 186.251 345.24 203.887C429.692 221.524 522.581 232.972 606.898 215.085C648.604 206.238 687.167 190.408 730.957 187.538C771.875 184.857 812.322 193.875 850.083 204.111C887.844 214.349 925.445 226.103 966.253 229.382C1007.06 232.661 1052.92 225.596 1076.98 204.673C1071.97 169.634 1066.96 134.594 1061.95 99.5546C938.737 128.861 805.282 158.577 678.09 136.969C655.461 133.124 632.664 127.636 609.343 129.143C565.566 131.974 536.084 157.526 499.504 172.866C453.207 192.281 390.31 194.954 340.259 179.635C295.737 166.008 258.925 139.049 209.417 137.863C179.087 137.137 150.135 146.609 119.788 146.893C94.9366 147.125 71.0591 141.199 46.4396 139.067C19.0177 136.691 -8.93864 139.163 -35.1213 144.523C-59.4119 149.495 -94.5644 157.765 -112.645 169.561C-133.278 183.021 -86.0658 171.37 -78.5057 169.174C-54.2542 162.129 -28.1598 157.713 -1.73248 155.382C28.7195 152.698 59.8042 152.766 90.2852 155.247Z" fill="#D6E4F6"/>
<path opacity="0.35" fill-rule="evenodd" clip-rule="evenodd" d="M95.8731 210.088C152.271 212.876 206.142 225.247 260.872 234.226C315.602 243.204 374.286 248.746 428.169 237.939C455.309 232.496 480.583 223.016 508.795 220.508C553.208 216.559 596.074 230.352 636.624 242.377C677.175 254.402 723.824 265.166 765.831 255.299C790.444 249.518 809.737 237.377 832.476 229.112C884.647 210.15 949.879 213.166 1008.64 221.668C1067.4 230.17 1125.26 243.631 1185.57 243.803C1095.93 239.017 1004.06 234.35 917.332 249.328C854.553 260.17 793.803 281.283 728.876 278.17C682.949 275.967 640.242 261.67 594.368 259.074C536.533 255.801 480.213 271.331 422.255 273.596C355.452 276.206 290.588 261.195 226.594 248.897C162.6 236.599 93.225 226.884 29.5647 239.847C13.4769 243.122 -2.03031 247.818 -18.7638 249.367C-31.4877 250.544 -59.7819 250.599 -53.2756 239.021C-48.5781 230.661 -22.8417 223.681 -11.0493 220.348C22.153 210.961 59.8072 208.304 95.8731 210.088Z" fill="#D6E4F6"/>
<path opacity="0.35" fill-rule="evenodd" clip-rule="evenodd" d="M31.0819 78.6043C81.6013 91.9492 130.084 108.687 182.719 118.293C235.355 127.899 294.458 129.692 342.939 113.647C373.815 103.43 399.78 86.293 434.045 82.0916C493.597 74.7901 553.496 109.401 611.423 98.0715C631.039 94.2351 647.204 85.5301 665.756 79.9918C727.8 61.4682 799.764 81.0027 867.76 87.2357C947.52 94.547 1031.46 82.1093 1097.56 53.1849C1046.7 79.5541 974.218 81.6734 908.792 76.2431C843.366 70.8128 778.332 59.1008 712.551 62.4445C651.331 65.557 590.017 81.6291 530.281 72.6716C499.26 68.0201 469.538 56.6926 437.879 59.1185C413.942 60.9534 393.54 70.3902 371.659 76.7455C293.422 99.4678 200.044 81.5804 125.846 54.0435C75.8199 35.4791 21.1946 11.6076 -35.0319 20.861C-50.3898 23.3888 -127.31 52.1838 -100.22 58.7357C-91.3628 60.8781 -76.3167 59.4286 -66.5628 60.304C-55.367 61.3096 -44.2815 62.775 -33.3364 64.555C-11.3078 68.1371 10.1262 73.0694 31.0819 78.6043Z" fill="#D6E4F6"/>
<path d="M744 12H32C20.9543 12 12 20.9543 12 32V435C12 446.046 20.9543 455 32 455H744C755.046 455 764 446.046 764 435V32C764 20.9543 755.046 12 744 12Z" fill="#B3DAF6"/>
<path fill-rule="evenodd" clip-rule="evenodd" d="M53.6308 61.9102C57.3016 54.637 65.1945 49.601 74.3329 49.601C84.524 49.601 93.1679 55.8641 96.1308 64.5097C97.5065 64.2457 98.9423 64.1066 100.419 64.1066C108.699 64.1066 115.717 68.4914 118.079 74.5295C119.73 74.1148 121.487 73.8916 123.309 73.8916C132.841 73.8916 140.58 80.0094 140.58 87.5466C140.58 89.8909 139.83 92.098 138.513 94.0268C150.548 95.1148 181.653 96.7512 184.409 97.5318C187.766 98.4843 155.629 99.2648 145.153 99.9834C142.952 100.134 140.58 101.319 140.58 102.099C140.58 110.131 130.077 116.652 117.142 116.652C111.953 116.652 107.156 115.603 103.271 113.827C100.124 117.679 94.6028 120.235 88.3241 120.235C82.5367 120.235 77.393 118.063 74.1584 114.708C70.6129 117.02 65.6397 118.457 60.1381 118.457C53.7441 118.457 48.064 116.514 44.5075 113.516C40.6372 115.441 35.0393 116.653 28.8178 116.653C17.228 116.653 7.80391 112.452 7.67556 107.257C3.71202 106.818 -1.54095 106.294 -8.61276 106.201C-23.9856 105.998 -53.2284 105.701 -55.1746 104.685C-57.1138 103.674 -38.6928 101.159 -13.6852 99.7787C-14.4012 98.945 -14.8072 97.9961 -14.8072 96.9878C-14.8072 93.6848 -10.4486 91.0038 -5.07936 91.0038C-2.90658 91.0038 -0.900244 91.4423 0.719062 92.1839C1.0329 86.6331 7.88712 82.1907 16.2845 82.1907C17.2049 82.1907 18.1073 82.243 18.9846 82.3467C19.9352 79.4627 22.0729 76.9633 24.9525 75.2055C25.7707 66.9179 34.4678 60.3871 45.06 60.3871C48.1231 60.3871 51.0289 60.9329 53.6308 61.9102Z" fill="#EFF2FF"/>
<path d="M53.6308 61.9102C57.3016 54.637 65.1945 49.601 74.3329 49.601C84.524 49.601 93.1679 55.8641 96.1308 64.5097C97.5065 64.2457 98.9423 64.1066 100.419 64.1066C108.699 64.1066 115.717 68.4914 118.079 74.5295C119.73 74.1148 121.487 73.8916 123.309 73.8916C132.841 73.8916 140.58 80.0094 140.58 87.5466C140.58 89.8909 139.83 92.098 138.513 94.0268C150.548 95.1148 181.653 96.7512 184.409 97.5318C187.766 98.4843 155.629 99.2648 145.153 99.9834C142.952 100.134 140.58 101.319 140.58 102.099C140.58 110.131 130.077 116.652 117.142 116.652C111.953 116.652 107.156 115.603 103.271 113.827C100.124 117.679 94.6028 120.235 88.3241 120.235C82.5367 120.235 77.393 118.063 74.1584 114.708C70.6129 117.02 65.6397 118.457 60.1381 118.457C53.7441 118.457 48.064 116.514 44.5075 113.516C40.6372 115.441 35.0393 116.653 28.8178 116.653C17.228 116.653 7.80391 112.452 7.67556 107.257C3.71202 106.818 -1.54095 106.294 -8.61276 106.201C-23.9856 105.998 -53.2284 105.701 -55.1746 104.685C-57.1138 103.674 -38.6928 101.159 -13.6852 99.7787C-14.4012 98.945 -14.8072 97.9961 -14.8072 96.9878C-14.8072 93.6848 -10.4486 91.0038 -5.07936 91.0038C-2.90658 91.0038 -0.900244 91.4423 0.719062 92.1839C1.0329 86.6331 7.88712 82.1907 16.2845 82.1907C17.2049 82.1907 18.1073 82.243 18.9846 82.3467C19.9352 79.4627 22.0729 76.9633 24.9525 75.2055C25.7707 66.9179 34.4678 60.3871 45.06 60.3871C48.1231 60.3871 51.0289 60.9329 53.6308 61.9102Z" fill="#EFF2FF"/>
<mask id="mask1_107_111" style="mask-type:luminance" maskUnits="userSpaceOnUse" x="-56" y="49" width="241" height="72">
<path d="M53.6308 61.9102C57.3016 54.637 65.1945 49.601 74.3329 49.601C84.524 49.601 93.1679 55.8641 96.1308 64.5097C97.5065 64.2457 98.9423 64.1066 100.419 64.1066C108.699 64.1066 115.717 68.4914 118.079 74.5295C119.73 74.1148 121.487 73.8916 123.309 73.8916C132.841 73.8916 140.58 80.0094 140.58 87.5466C140.58 89.8909 139.83 92.098 138.513 94.0268C150.548 95.1148 181.653 96.7512 184.409 97.5318C187.766 98.4843 155.629 99.2648 145.153 99.9834C142.952 100.134 140.58 101.319 140.58 102.099C140.58 110.131 130.077 116.652 117.142 116.652C111.953 116.652 107.156 115.603 103.271 113.827C100.124 117.679 94.6028 120.235 88.3241 120.235C82.5367 120.235 77.393 118.063 74.1584 114.708C70.6129 117.02 65.6397 118.457 60.1381 118.457C53.7441 118.457 48.064 116.514 44.5075 113.516C40.6372 115.441 35.0393 116.653 28.8178 116.653C17.228 116.653 7.80391 112.452 7.67556 107.257C3.71202 106.818 -1.54095 106.294 -8.61276 106.201C-23.9856 105.998 -53.2284 105.701 -55.1746 104.685C-57.1138 103.674 -38.6928 101.159 -13.6852 99.7787C-14.4012 98.945 -14.8072 97.9961 -14.8072 96.9878C-14.8072 93.6848 -10.4486 91.0038 -5.07936 91.0038C-2.90658 91.0038 -0.900244 91.4423 0.719062 92.1839C1.0329 86.6331 7.88712 82.1907 16.2845 82.1907C17.2049 82.1907 18.1073 82.243 18.9846 82.3467C19.9352 79.4627 22.0729 76.9633 24.9525 75.2055C25.7707 66.9179 34.4678 60.3871 45.06 60.3871C48.1231 60.3871 51.0289 60.9329 53.6308 61.9102Z" fill="white"/>
</mask>
<g mask="url(#mask1_107_111)">
<path fill-rule="evenodd" clip-rule="evenodd" d="M51.469 55.2244C55.1388 47.9512 63.0328 42.9152 72.1711 42.9152C82.3612 42.9152 91.0052 49.1784 93.9681 57.8239C95.3437 57.5599 96.7805 57.4208 98.2575 57.4208C106.537 57.4208 113.555 61.8056 115.917 67.8437C117.568 67.4291 119.325 67.2058 121.147 67.2058C130.68 67.2058 140.986 71.7333 140.986 79.2687C140.986 81.613 143.956 84.3942 142.637 86.323C154.671 87.411 186.398 96.7158 189.154 97.4973C192.511 98.4497 153.821 96.178 143.346 96.8965C141.146 97.0472 138.773 98.2326 138.773 99.0123C138.773 107.044 127.917 109.966 114.981 109.966C109.792 109.966 104.995 108.917 101.11 107.141C97.9637 110.993 92.442 113.549 86.1623 113.549C80.3749 113.549 75.2312 111.377 71.9966 108.022C68.4502 110.334 63.478 111.772 57.9763 111.772C51.5823 111.772 45.9022 109.829 42.3458 106.83C38.4755 108.756 32.8776 109.967 26.656 109.967C15.0662 109.967 5.64215 105.766 5.5138 100.571C3.49844 103.966 0.170598 103.784 -6.90021 103.673C-12.0339 103.591 -58.0182 104.762 -59.9653 103.745C-61.9045 102.734 -40.8545 94.4733 -15.848 93.093C-16.5639 92.2601 -16.97 91.3103 -16.97 90.302C-16.97 86.999 -12.6114 84.318 -7.24212 84.318C-5.07034 84.318 -3.063 84.7566 -1.44369 85.4982C-1.12986 79.9474 5.72437 75.5041 14.1217 75.5041C15.0422 75.5041 15.9445 75.5572 16.8219 75.6609C17.7724 72.777 19.9101 70.2776 22.7898 68.5197C23.6089 60.2321 32.3051 53.7014 42.8972 53.7014C45.9624 53.7005 48.8661 54.2463 51.469 55.2244Z" fill="#EFF2FF"/>
</g>
<path fill-rule="evenodd" clip-rule="evenodd" d="M37.3826 96.388C36.2756 100.91 39.2104 105.604 44.3942 107.237C49.4015 108.814 54.83 107.005 57.3376 103.165C57.2434 103.548 57.1211 103.929 56.9687 104.306C55.0135 109.153 48.8621 111.65 43.2412 109.879C37.6192 108.109 34.6423 102.736 36.5975 97.8897C36.8111 97.3599 37.0748 96.8593 37.3826 96.388Z" fill="#EFF2FF"/>
<path fill-rule="evenodd" clip-rule="evenodd" d="M2.86476 93.4394C1.93929 97.3635 4.69763 101.496 9.44826 102.992C14.0375 104.437 18.9485 102.939 21.1624 99.6272C21.0842 99.9594 20.9799 100.29 20.8476 100.617C19.1551 104.812 13.5983 106.901 8.4456 105.278C3.2939 103.656 0.484425 98.9317 2.17693 94.7365C2.36242 94.2784 2.59404 93.846 2.86476 93.4394Z" fill="#EFF2FF"/>
<path fill-rule="evenodd" clip-rule="evenodd" d="M57.3377 75.6972C53.9486 72.171 47.9467 71.3744 43.3274 74.0165C38.8645 76.5691 37.1881 81.4775 39.1122 85.5717C38.8264 85.2731 38.5587 84.9559 38.3111 84.6193C35.1466 80.3 36.6446 74.4666 41.656 71.6004C46.6653 68.7351 53.3019 69.9143 56.4653 74.2336C56.8113 74.7058 57.101 75.1949 57.3377 75.6972Z" fill="#EFF2FF"/>
<path fill-rule="evenodd" clip-rule="evenodd" d="M70.63 98.7988C69.524 103.32 72.4578 108.014 77.6416 109.647C82.6489 111.224 88.0764 109.415 90.584 105.575C90.4908 105.958 90.3685 106.339 90.2151 106.716C88.2599 111.563 82.1095 114.06 76.4876 112.289C70.8656 110.519 67.8887 105.146 69.8439 100.3C70.0585 99.7707 70.3222 99.2693 70.63 98.7988Z" fill="#EFF2FF"/>
<path fill-rule="evenodd" clip-rule="evenodd" d="M82.0223 81.7832C85.1055 78.0442 84.5721 72.7017 80.5805 69.3544C76.7242 66.1213 70.9318 65.8343 66.879 68.448C67.1397 68.1317 67.4265 67.8269 67.7393 67.5363C71.747 63.8036 78.516 63.7212 82.8445 67.3502C87.174 70.9802 87.4337 76.958 83.426 80.6907C82.9889 81.0983 82.5186 81.4624 82.0223 81.7832Z" fill="#EFF2FF"/>
<path fill-rule="evenodd" clip-rule="evenodd" d="M112.342 96.2294C115.814 91.8561 115.067 85.6895 110.371 81.8886C105.833 78.2143 99.1288 77.9804 94.5085 81.0699C94.8013 80.7005 95.1251 80.3434 95.4801 80.0014C100.022 75.6201 107.846 75.411 112.94 79.5345C118.033 83.6579 118.481 90.5625 113.939 94.9438C113.444 95.4222 112.908 95.8511 112.342 96.2294Z" fill="#EFF2FF"/>
<path fill-rule="evenodd" clip-rule="evenodd" d="M52.563 202.756C53.5416 197.455 59.8714 193.36 67.5248 193.36C75.4539 193.36 81.9642 197.757 82.5708 203.337C84.7275 203.672 86.4371 204.946 86.9274 206.571C87.5932 206.375 88.3091 206.27 89.0561 206.27C90.3535 206.27 91.5587 206.59 92.5634 207.141C94.4464 205.67 96.942 204.775 99.6763 204.775C104.446 204.775 108.486 207.499 109.824 211.245C110.925 210.929 112.109 210.757 113.343 210.757C118.747 210.757 123.219 214.056 123.914 218.325C127.805 218.623 130.822 220.718 130.822 223.254C130.822 223.726 130.718 224.182 130.523 224.614C130.553 224.613 130.582 224.613 130.613 224.613C132.216 224.613 133.516 225.61 133.516 226.838C133.516 227.182 133.414 227.508 133.232 227.799C145.772 228.724 161.18 229.548 162.823 229.725C165.624 230.026 -45.8297 229.332 -45.8297 229.332C-45.8297 229.332 -32.6536 228.589 -24.9852 227.769C-19.5057 227.184 -20.9465 226.409 -20.5123 225.445C-19.9178 224.123 -17.5585 223.135 -14.741 223.135C-13.8055 223.135 -12.9212 223.244 -12.1351 223.438C-11.9215 220.576 -7.88577 218.29 -2.94663 218.29C-0.690632 218.29 1.37687 218.767 2.97813 219.557C3.34711 217.199 5.94502 215.325 9.21672 215.053C10.1131 211.071 14.2882 208.056 19.2975 208.056C21.2317 208.056 23.0405 208.505 24.5856 209.287C26.0685 206.32 30.0872 204.19 34.8058 204.19C37.3415 204.19 39.6737 204.805 41.5206 205.834C43.0306 203.652 45.8752 202.181 49.1329 202.181C50.3501 202.179 51.5092 202.385 52.563 202.756Z" fill="#EFF2FF"/>
<path d="M52.563 202.756C53.5416 197.455 59.8714 193.36 67.5248 193.36C75.4539 193.36 81.9642 197.757 82.5708 203.337C84.7275 203.672 86.4371 204.946 86.9274 206.571C87.5932 206.375 88.3091 206.27 89.0561 206.27C90.3535 206.27 91.5587 206.59 92.5634 207.141C94.4464 205.67 96.942 204.775 99.6763 204.775C104.446 204.775 108.486 207.499 109.824 211.245C110.925 210.929 112.109 210.757 113.343 210.757C118.747 210.757 123.219 214.056 123.914 218.325C127.805 218.623 130.822 220.718 130.822 223.254C130.822 223.726 130.718 224.182 130.523 224.614C130.553 224.613 130.582 224.613 130.613 224.613C132.216 224.613 133.516 225.61 133.516 226.838C133.516 227.182 133.414 227.508 133.232 227.799C145.772 228.724 161.18 229.548 162.823 229.725C165.624 230.026 -45.8297 229.332 -45.8297 229.332C-45.8297 229.332 -32.6536 228.589 -24.9852 227.769C-19.5057 227.184 -20.9465 226.409 -20.5123 225.445C-19.9178 224.123 -17.5585 223.135 -14.741 223.135C-13.8055 223.135 -12.9212 223.244 -12.1351 223.438C-11.9215 220.576 -7.88577 218.29 -2.94663 218.29C-0.690632 218.29 1.37687 218.767 2.97813 219.557C3.34711 217.199 5.94502 215.325 9.21672 215.053C10.1131 211.071 14.2882 208.056 19.2975 208.056C21.2317 208.056 23.0405 208.505 24.5856 209.287C26.0685 206.32 30.0872 204.19 34.8058 204.19C37.3415 204.19 39.6737 204.805 41.5206 205.834C43.0306 203.652 45.8752 202.181 49.1329 202.181C50.3501 202.179 51.5092 202.385 52.563 202.756Z" fill="#EFF2FF"/>
<mask id="mask2_107_111" style="mask-type:luminance" maskUnits="userSpaceOnUse" x="-46" y="193" width="209" height="37">
<path d="M52.563 202.756C53.5416 197.455 59.8714 193.36 67.5248 193.36C75.4539 193.36 81.9642 197.757 82.5708 203.337C84.7275 203.672 86.4371 204.946 86.9274 206.571C87.5932 206.375 88.3091 206.27 89.0561 206.27C90.3535 206.27 91.5587 206.59 92.5634 207.141C94.4464 205.67 96.942 204.775 99.6763 204.775C104.446 204.775 108.486 207.499 109.824 211.245C110.925 210.929 112.109 210.757 113.343 210.757C118.747 210.757 123.219 214.056 123.914 218.325C127.805 218.623 130.822 220.718 130.822 223.254C130.822 223.726 130.718 224.182 130.523 224.614C130.553 224.613 130.582 224.613 130.613 224.613C132.216 224.613 133.516 225.61 133.516 226.838C133.516 227.182 133.414 227.508 133.232 227.799C145.772 228.724 161.18 229.548 162.823 229.725C165.624 230.026 -45.8297 229.332 -45.8297 229.332C-45.8297 229.332 -32.6536 228.589 -24.9852 227.769C-19.5057 227.184 -20.9465 226.409 -20.5123 225.445C-19.9178 224.123 -17.5585 223.135 -14.741 223.135C-13.8055 223.135 -12.9212 223.244 -12.1351 223.438C-11.9215 220.576 -7.88577 218.29 -2.94663 218.29C-0.690632 218.29 1.37687 218.767 2.97813 219.557C3.34711 217.199 5.94502 215.325 9.21672 215.053C10.1131 211.071 14.2882 208.056 19.2975 208.056C21.2317 208.056 23.0405 208.505 24.5856 209.287C26.0685 206.32 30.0872 204.19 34.8058 204.19C37.3415 204.19 39.6737 204.805 41.5206 205.834C43.0306 203.652 45.8752 202.181 49.1329 202.181C50.3501 202.179 51.5092 202.385 52.563 202.756Z" fill="white"/>
</mask>
<g mask="url(#mask2_107_111)">
<path fill-rule="evenodd" clip-rule="evenodd" d="M24.8854 225.546C24.6016 226.424 23.2571 227.069 22.3767 227.328C19.7678 228.096 16.5833 227.807 14.199 226.584C13.3978 226.173 12.0643 224.675 11.0466 224.815C10.0259 224.953 9.25381 226.077 8.51585 226.613C7.19734 227.57 5.66928 228.166 3.96074 228.297C1.77893 228.463 -0.278536 227.862 -2.1064 226.836C-2.84436 226.423 -3.9884 225.193 -4.90885 225.175C-5.47335 225.164 -6.03384 225.879 -6.36573 226.194C-7.04754 226.843 -7.9339 227.473 -8.92954 227.69C-10.8075 228.096 -13.0305 227.703 -14.8373 227.201C-15.5 227.016 -16.1558 226.665 -16.8436 226.574C-17.754 226.455 -18.4719 227.513 -19.3563 227.689C-22.1276 228.24 -25.0995 226.7 -26.3128 224.539C-28.1366 221.289 -24.2393 218.959 -21.6454 217.223C-17.8192 214.662 -13.5338 213.462 -8.83529 212.815C-5.40818 212.342 -1.87378 212.521 1.21243 210.936C11.4476 206.915 18.335 199.283 28.4428 194.97C42.5784 188.939 58.0656 188.699 73.3924 189.666C83.404 190.298 93.3054 191.372 102.37 195.449C107.404 197.712 112.283 201.121 115.91 204.962C119.206 208.451 121.548 213.732 125.838 216.398C126.567 216.827 127.032 217.924 127.233 218.613C127.952 221.081 127.08 223.414 124.664 224.849C123.025 225.823 120.901 226.191 118.98 225.781C117.88 225.547 116.637 224.732 115.47 224.935C114.425 225.117 113.598 225.978 112.716 226.448C110.876 227.429 108.766 228.212 106.595 228.27C103.361 228.356 99.931 227.36 97.1405 225.969C96.186 225.493 95.2726 224.987 94.4705 224.324C94.1215 224.035 93.6182 223.466 93.0848 223.466C92.044 223.466 90.6413 225.248 89.8141 225.72C88.0444 226.73 85.8114 227.196 83.7369 227.342C80.2687 227.587 76.7002 226.984 73.5598 225.665C72.5161 225.227 71.4973 224.738 70.5288 224.183C70.0555 223.912 69.4098 223.338 68.8062 223.329C67.6251 223.311 66.3396 225.208 65.6197 225.844C64.218 227.084 62.4393 227.768 60.4791 227.962C57.9072 228.217 55.4627 227.67 52.927 227.466C49.7345 227.21 46.7054 227.592 43.7024 226.289C42.3488 225.701 41.2068 224.757 40.1981 223.777C39.78 223.371 39.1553 222.377 38.5116 222.221C38.0815 222.117 37.9491 223.15 37.894 223.34C37.5611 224.482 37.164 225.822 35.9388 226.472C32.7764 228.149 28.0107 227.022 25.0418 225.509" fill="#EFF2FF"/>
</g>
<path fill-rule="evenodd" clip-rule="evenodd" d="M88.3582 212.248C87.6583 217.036 91.293 221.732 97.0042 223.084C102.522 224.391 108.129 222.138 110.398 217.966C110.339 218.371 110.248 218.776 110.126 219.18C108.554 224.365 102.248 227.384 96.0547 225.918C89.8602 224.451 86.1072 219.051 87.6794 213.866C87.8518 213.3 88.0795 212.76 88.3582 212.248Z" fill="#EFF2FF"/>
<path fill-rule="evenodd" clip-rule="evenodd" d="M35.3312 213.417C34.6313 218.206 38.267 222.902 43.9782 224.254C49.4959 225.561 55.1018 223.307 57.3718 219.135C57.3127 219.54 57.2224 219.946 57.1001 220.35C55.5279 225.535 49.2231 228.553 43.0287 227.087C36.8342 225.621 33.0822 220.221 34.6534 215.036C34.8248 214.469 35.0535 213.928 35.3312 213.417Z" fill="#EFF2FF"/>
<path fill-rule="evenodd" clip-rule="evenodd" d="M56.4704 225.079C60.3778 226.948 65.4743 225.884 68.3059 222.45C71.0411 219.132 70.7454 214.713 67.8266 211.971C68.1565 212.129 68.4793 212.308 68.7902 212.509C72.7828 215.079 73.5318 220.191 70.4606 223.915C67.3894 227.64 61.6542 228.577 57.6616 226.007C57.2264 225.725 56.8283 225.414 56.4704 225.079Z" fill="#EFF2FF"/>
<path fill-rule="evenodd" clip-rule="evenodd" d="M9.56565 217.128C9.60275 221.055 13.1211 224.482 17.8918 225.012C22.5011 225.524 26.7353 223.16 28.0408 219.576C28.0438 219.908 28.0217 220.244 27.9736 220.581C27.358 224.913 22.6565 227.963 17.4817 227.388C12.3069 226.813 8.6061 222.831 9.22174 218.499C9.28892 218.025 9.40523 217.567 9.56565 217.128Z" fill="#EFF2FF"/>
<path fill-rule="evenodd" clip-rule="evenodd" d="M591.86 50.992C594.883 47.4755 600.009 45.1612 605.818 45.1612C614.024 45.1612 620.864 49.7782 622.345 55.8783C629.971 57.0549 635.715 62.1556 635.715 68.261C635.715 68.9494 635.642 69.6255 635.502 70.2838C639.039 72.8921 641.267 76.6833 641.267 80.8998C641.267 87.0265 636.564 92.2557 629.972 94.2625C629.998 94.5522 630.01 94.8446 630.01 95.1396C630.01 102.434 622.341 108.358 612.893 108.358C608.671 108.358 604.805 107.175 601.819 105.217C599.917 105.752 597.885 106.042 595.775 106.042C592.412 106.042 589.249 105.306 586.495 104.014C582.733 106.705 577.647 108.359 572.049 108.359C565.317 108.359 559.324 105.968 555.49 102.259C552.285 104.561 547.309 106.042 541.725 106.042C537.454 106.042 533.537 105.175 530.498 103.737C528.031 105.164 524.677 106.042 520.983 106.042C513.623 106.042 507.608 102.553 507.274 98.1804C489.134 97.9509 471.829 97.7976 465.893 97.5265C465.83 97.5238 498.127 93.3375 501.177 91.0817C501.256 91.0241 501.331 90.9621 501.403 90.8965C500.904 90.0105 500.628 89.0395 500.628 88.0206C500.628 83.8653 505.222 80.4922 510.882 80.4922C513.572 80.4922 516.023 81.2542 517.852 82.5008C519.897 80.3221 523.66 78.8602 527.961 78.8602C530.474 78.8602 532.803 79.3591 534.713 80.2087C534.912 74.5809 541.031 70.0596 548.537 70.0596C549.451 70.0596 550.343 70.126 551.207 70.2536C551.133 69.8266 551.096 69.3889 551.096 68.9459C551.096 63.4748 556.862 59.0324 563.963 59.0324C565.476 59.0324 566.927 59.2344 568.276 59.6039C568.667 57.6326 569.68 55.8171 571.156 54.2799C572.183 53.0041 573.576 51.8665 575.459 51.202C577.897 50.0192 580.787 49.3343 583.883 49.3343C586.791 49.3343 589.517 49.9385 591.86 50.992Z" fill="#EFF2FF"/>
<path d="M591.86 50.992C594.883 47.4755 600.009 45.1612 605.818 45.1612C614.024 45.1612 620.864 49.7782 622.345 55.8783C629.971 57.0549 635.715 62.1556 635.715 68.261C635.715 68.9494 635.642 69.6255 635.502 70.2838C639.039 72.8921 641.267 76.6833 641.267 80.8998C641.267 87.0265 636.564 92.2557 629.972 94.2625C629.998 94.5522 630.01 94.8446 630.01 95.1396C630.01 102.434 622.341 108.358 612.893 108.358C608.671 108.358 604.805 107.175 601.819 105.217C599.917 105.752 597.885 106.042 595.775 106.042C592.412 106.042 589.249 105.306 586.495 104.014C582.733 106.705 577.647 108.359 572.049 108.359C565.317 108.359 559.324 105.968 555.49 102.259C552.285 104.561 547.309 106.042 541.725 106.042C537.454 106.042 533.537 105.175 530.498 103.737C528.031 105.164 524.677 106.042 520.983 106.042C513.623 106.042 507.608 102.553 507.274 98.1804C489.134 97.9509 471.829 97.7976 465.893 97.5265C465.83 97.5238 498.127 93.3375 501.177 91.0817C501.256 91.0241 501.331 90.9621 501.403 90.8965C500.904 90.0105 500.628 89.0395 500.628 88.0206C500.628 83.8653 505.222 80.4922 510.882 80.4922C513.572 80.4922 516.023 81.2542 517.852 82.5008C519.897 80.3221 523.66 78.8602 527.961 78.8602C530.474 78.8602 532.803 79.3591 534.713 80.2087C534.912 74.5809 541.031 70.0596 548.537 70.0596C549.451 70.0596 550.343 70.126 551.207 70.2536C551.133 69.8266 551.096 69.3889 551.096 68.9459C551.096 63.4748 556.862 59.0324 563.963 59.0324C565.476 59.0324 566.927 59.2344 568.276 59.6039C568.667 57.6326 569.68 55.8171 571.156 54.2799C572.183 53.0041 573.576 51.8665 575.459 51.202C577.897 50.0192 580.787 49.3343 583.883 49.3343C586.791 49.3343 589.517 49.9385 591.86 50.992Z" fill="#EFF2FF"/>
<mask id="mask3_107_111" style="mask-type:luminance" maskUnits="userSpaceOnUse" x="465" y="45" width="177" height="64">
<path d="M591.86 50.992C594.883 47.4755 600.009 45.1612 605.818 45.1612C614.024 45.1612 620.864 49.7782 622.345 55.8783C629.971 57.0549 635.715 62.1556 635.715 68.261C635.715 68.9494 635.642 69.6255 635.502 70.2838C639.039 72.8921 641.267 76.6833 641.267 80.8998C641.267 87.0265 636.564 92.2557 629.972 94.2625C629.998 94.5522 630.01 94.8446 630.01 95.1396C630.01 102.434 622.341 108.358 612.893 108.358C608.671 108.358 604.805 107.175 601.819 105.217C599.917 105.752 597.885 106.042 595.775 106.042C592.412 106.042 589.249 105.306 586.495 104.014C582.733 106.705 577.647 108.359 572.049 108.359C565.317 108.359 559.324 105.968 555.49 102.259C552.285 104.561 547.309 106.042 541.725 106.042C537.454 106.042 533.537 105.175 530.498 103.737C528.031 105.164 524.677 106.042 520.983 106.042C513.623 106.042 507.608 102.553 507.274 98.1804C489.134 97.9509 471.829 97.7976 465.893 97.5265C465.83 97.5238 498.127 93.3375 501.177 91.0817C501.256 91.0241 501.331 90.9621 501.403 90.8965C500.904 90.0105 500.628 89.0395 500.628 88.0206C500.628 83.8653 505.222 80.4922 510.882 80.4922C513.572 80.4922 516.023 81.2542 517.852 82.5008C519.897 80.3221 523.66 78.8602 527.961 78.8602C530.474 78.8602 532.803 79.3591 534.713 80.2087C534.912 74.5809 541.031 70.0596 548.537 70.0596C549.451 70.0596 550.343 70.126 551.207 70.2536C551.133 69.8266 551.096 69.3889 551.096 68.9459C551.096 63.4748 556.862 59.0324 563.963 59.0324C565.476 59.0324 566.927 59.2344 568.276 59.6039C568.667 57.6326 569.68 55.8171 571.156 54.2799C572.183 53.0041 573.576 51.8665 575.459 51.202C577.897 50.0192 580.787 49.3343 583.883 49.3343C586.791 49.3343 589.517 49.9385 591.86 50.992Z" fill="white"/>
</mask>
<g mask="url(#mask3_107_111)">
<path fill-rule="evenodd" clip-rule="evenodd" d="M590.279 44.9459C593.303 41.4285 598.429 39.1152 604.239 39.1152C612.443 39.1152 619.285 43.7321 620.766 49.8313C628.392 51.0088 634.136 56.1087 634.136 62.2141C634.136 62.9025 634.063 63.5785 633.923 64.2377C637.46 66.8461 639.688 70.6373 639.688 74.8538C639.688 80.9804 634.984 86.2087 628.393 88.2155C628.418 88.5052 628.431 88.7985 628.431 89.0927C628.431 96.388 620.761 102.31 611.313 102.31C607.092 102.31 603.226 101.128 600.24 99.1691C598.338 99.7043 596.306 99.994 594.196 99.994C590.833 99.994 587.67 99.2586 584.915 97.9668C581.155 100.659 576.067 102.311 570.47 102.311C563.738 102.311 557.745 99.9214 553.911 96.2117C550.705 98.5135 545.73 99.994 540.146 99.994C535.875 99.994 531.958 99.1284 528.918 97.6895C526.452 99.1169 523.098 99.994 519.404 99.994C512.043 99.994 509.765 98.0297 509.431 93.6573C492.538 95.6287 468.91 98.3549 462.973 98.0829C462.911 98.0802 496.549 87.2897 499.599 85.033C499.677 84.9754 499.753 84.9143 499.825 84.8487C499.326 83.9627 499.049 82.9908 499.049 81.9728C499.049 77.8174 503.644 74.4435 509.304 74.4435C511.994 74.4435 514.444 75.2055 516.274 76.4521C518.319 74.2743 522.082 72.8124 526.382 72.8124C528.895 72.8124 531.224 73.3103 533.134 74.16C533.333 68.533 539.452 64.0109 546.959 64.0109C547.872 64.0109 548.765 64.0782 549.629 64.2049C549.555 63.7779 549.517 63.342 549.517 62.899C549.517 57.427 555.282 52.9855 562.385 52.9855C563.897 52.9855 565.349 53.1866 566.697 53.557C567.088 51.5856 568.101 49.7702 569.575 48.2321C570.604 46.9572 571.996 45.8186 573.88 45.155C576.317 43.9722 579.207 43.2873 582.304 43.2873C585.212 43.2882 587.938 43.8916 590.279 44.9459Z" fill="#EFF2FF"/>
</g>
<path fill-rule="evenodd" clip-rule="evenodd" d="M614.842 93.0531C617.076 90.0929 616.1 85.6115 612.403 82.6186C608.831 79.7267 603.915 79.1934 600.753 81.1674C600.942 80.9166 601.154 80.6774 601.389 80.4506C604.404 77.5427 610.107 77.8165 614.117 81.0637C618.126 84.3091 618.935 89.3053 615.921 92.214C615.592 92.5312 615.231 92.8112 614.842 93.0531Z" fill="#EFF2FF"/>
<path fill-rule="evenodd" clip-rule="evenodd" d="M534.033 92.8909C537.503 97.2651 544.319 98.7438 549.964 96.1372C555.419 93.6174 557.95 88.1278 556.236 83.2362C556.53 83.6065 556.798 83.9964 557.042 84.4075C560.157 89.673 557.716 96.2444 551.595 99.0725C545.472 101.901 537.972 99.9213 534.857 94.6558C534.517 94.0808 534.243 93.4907 534.033 92.8909Z" fill="#EFF2FF"/>
<path fill-rule="evenodd" clip-rule="evenodd" d="M514.318 85.7453C510.572 86.8599 508.218 89.9228 508.966 92.929C509.688 95.8342 513.064 97.7143 516.835 97.499C516.518 97.5929 516.191 97.6735 515.856 97.7382C511.551 98.5737 507.397 96.605 506.587 93.3446C505.776 90.0832 508.613 86.7571 512.919 85.9216C513.387 85.8295 513.855 85.7719 514.318 85.7453Z" fill="#EFF2FF"/>
<path fill-rule="evenodd" clip-rule="evenodd" d="M582.354 90.4722C581.731 94.1854 584.779 98.0041 589.608 99.2958C594.273 100.543 599.037 99.0132 600.987 95.8466C600.934 96.1603 600.856 96.4739 600.748 96.7849C599.383 100.772 594.022 102.872 588.785 101.47C583.549 100.069 580.405 95.6951 581.771 91.709C581.919 91.274 582.116 90.8611 582.354 90.4722Z" fill="#EFF2FF"/>
<path fill-rule="evenodd" clip-rule="evenodd" d="M600.346 67.7959C602.056 63.4243 599.778 58.4539 594.854 56.2841C590.095 54.1887 584.461 55.4113 581.451 58.9589C581.596 58.5894 581.77 58.2244 581.971 57.8656C584.569 53.2593 591.014 51.4306 596.356 53.7829C601.697 56.1343 603.925 61.7826 601.328 66.3889C601.044 66.8921 600.714 67.3617 600.346 67.7959Z" fill="#EFF2FF"/>
<path fill-rule="evenodd" clip-rule="evenodd" d="M646.118 226.717C649.78 222.584 656.179 222.468 660.146 218.628C670.869 208.248 675.28 204.321 678.265 204.849C688.096 206.587 713.149 232.937 716.789 228.883C720.429 224.829 752.04 201.18 764.45 189.828C773.737 181.332 790.316 167.923 802.955 158.627C817.222 148.132 827.184 142.327 829.443 144.426C837.615 152.017 834.598 404.874 833.517 480.099C833.353 491.54 823.896 500.374 812.48 499.581C711.129 492.544 273.111 461.287 290.504 447.868C310.166 432.697 536.791 277.316 541.606 273.369C544.369 271.104 551.18 277.724 559.394 284.007C560.182 284.611 564.558 282.532 565.342 283.126C570.624 287.126 573.492 293.175 576.897 294.034C579.532 294.7 588.203 287.485 599.461 276.899C600.546 275.879 601.512 274.734 602.335 273.493C602.687 272.961 603.046 272.418 603.409 271.865C607.835 265.137 627.486 244.333 628.549 242.612C629.554 240.984 632.687 236.307 633.019 235.811C633.04 235.78 633.058 235.752 633.08 235.722C634.448 233.802 637.881 234.911 638.903 235.06C640.941 235.359 643.023 230.966 644.398 228.958C645.017 228.054 645.587 227.316 646.118 226.717Z" fill="#5799C9"/>
<path fill-rule="evenodd" clip-rule="evenodd" d="M342.583 436.334C358.712 431.459 548.831 314.904 561.485 325.444C568.955 331.665 581.342 337.964 591.501 338.901C594.509 339.179 597.434 338.143 599.914 336.418C615.596 325.509 638.191 303.162 643.816 307.073C655.138 314.945 827.846 508.598 812.636 497.892C805.047 492.551 437.962 506.42 336.898 510.346C323.842 510.853 314.134 498.925 317.714 486.359C323.604 465.689 332.904 439.26 342.583 436.334Z" fill="#4782AF"/>
<path fill-rule="evenodd" clip-rule="evenodd" d="M209.208 323.578C220.606 307.186 225.134 294.168 226.859 288.327C227.51 286.119 228.129 286.148 228.783 288.356C235.034 309.462 245.247 323.456 256.227 337.228C256.918 338.095 256.014 339.322 254.982 338.915V338.915C253.957 338.511 253.055 339.721 253.736 340.588L260.261 348.899C261.041 349.892 259.799 351.199 258.768 350.47V350.47C257.781 349.774 256.558 350.953 257.219 351.965L260.69 357.283C261.411 358.387 260.153 359.71 259.014 359.045V359.045C257.911 358.402 256.667 359.631 257.297 360.741L281.654 403.683C282.194 404.635 281.211 405.726 280.208 405.288V405.288C279.199 404.847 278.214 405.953 278.768 406.904L280.327 409.579C280.661 410.153 280.021 410.799 279.444 410.471V410.471C278.834 410.124 278.18 410.855 278.597 411.42C283.53 418.107 296.672 435.972 295.149 434.471V434.471C291.76 431.135 286.497 435.558 288.718 439.763L307.848 475.975C308.228 476.694 307.453 477.473 306.732 477.096V477.096C305.944 476.683 305.148 477.635 305.694 478.338L309.612 483.388C309.629 483.411 309.638 483.421 309.654 483.445C310.184 484.186 323.536 502.906 320.566 500.81C319.566 500.104 317.025 498.211 314.068 495.991C312.081 494.499 310.344 498.961 311.269 501.267V501.267C311.934 502.926 309.695 502.318 307.91 502.228L283.26 500.99L254.398 497.717C253.427 497.607 252.449 497.568 251.473 497.601L241.897 497.923L194.924 498.58C193.757 498.596 192.595 498.713 191.45 498.941C189.474 499.334 186.115 500.019 183.109 500.716V500.716C176.547 502.238 170.705 493.006 164.536 495.712C162.352 496.67 160.275 497.665 158.719 498.582V498.582C155.076 500.729 152.145 492.851 148.918 495.584C148.765 495.713 148.614 495.843 148.463 495.975V495.975C143.861 499.983 144.724 487.45 139.177 489.993C137.289 490.858 135.215 491.961 132.974 493.365C128.936 495.895 129.32 494.831 132.917 489.949C134.004 488.474 132.264 486.583 130.718 487.566V487.566C129.22 488.517 127.458 486.741 128.414 485.246C132.095 479.489 136.787 471.957 136.073 472.045C134.919 472.189 151.859 453.311 154.011 450.234C156.161 447.156 144.912 454.73 144.124 455.582C143.335 456.435 152.598 443.685 154.723 441.163C156.317 439.272 168.351 421.404 174.273 412.581C175.183 411.225 173.774 409.648 172.37 410.481V410.481C169.775 412.02 178.164 399.404 179.471 395.993C180.778 392.584 172.114 401.26 168.542 404.102C164.968 406.942 170.283 401.193 181.255 387.335C188.616 378.035 196.908 364.595 201.568 356.758C202.789 354.704 200.732 352.57 199.037 354.254V354.254C196.922 356.354 203.856 342.245 204.93 338.444C206.005 334.643 196.809 344.453 194.451 346.978C192.089 349.499 200.162 336.585 209.208 323.578Z" fill="#265E73"/>
<path fill-rule="evenodd" clip-rule="evenodd" d="M308.211 333.458C319.61 317.066 324.137 304.048 325.862 298.207C326.514 295.999 327.132 296.029 327.786 298.236C334.038 319.342 344.25 333.336 355.23 347.107C355.921 347.974 355.017 349.201 353.985 348.794V348.794C352.96 348.389 352.058 349.6 352.739 350.467L359.264 358.778C360.044 359.771 358.802 361.078 357.771 360.35V360.35C356.784 359.653 355.562 360.832 356.222 361.844L359.694 367.162C360.415 368.266 359.156 369.589 358.017 368.924V368.924C356.915 368.281 355.67 369.51 356.3 370.62L380.658 413.562C381.197 414.514 380.214 415.605 379.212 415.166V415.166C378.203 414.725 377.218 415.831 377.772 416.782L379.331 419.457C379.665 420.03 379.026 420.676 378.449 420.348V420.348C377.839 420.001 377.185 420.733 377.602 421.297C382.535 427.983 395.677 445.849 394.154 444.349V444.349C390.766 441.013 385.502 445.436 387.723 449.641L406.853 485.852C407.233 486.571 406.457 487.35 405.737 486.973V486.973C404.948 486.561 404.153 487.512 404.698 488.215L408.615 493.266C408.633 493.288 408.641 493.299 408.658 493.322C409.186 494.062 422.54 512.783 419.569 510.687C418.569 509.981 416.028 508.088 413.071 505.868C411.085 504.376 409.348 508.839 410.272 511.145V511.145C410.937 512.804 408.699 512.195 406.913 512.105L382.264 510.866L353.399 507.595C352.429 507.485 351.451 507.446 350.475 507.479L340.899 507.8L293.926 508.457C292.759 508.473 291.596 508.591 290.452 508.818C288.475 509.211 285.117 509.896 282.11 510.594V510.594C275.549 512.116 269.706 502.884 263.538 505.589C261.354 506.547 259.276 507.543 257.72 508.46V508.46C254.077 510.607 251.147 502.728 247.921 505.462C247.768 505.591 247.617 505.721 247.466 505.852V505.852C242.865 509.86 243.728 497.327 238.18 499.869C236.292 500.735 234.219 501.837 231.977 503.241C227.94 505.771 228.323 504.706 231.921 499.825C233.008 498.349 231.268 496.458 229.721 497.441V497.441C228.223 498.392 226.461 496.616 227.417 495.121C231.099 489.364 235.791 481.831 235.078 481.92C233.925 482.063 250.864 463.186 253.016 460.107C255.168 457.029 243.917 464.603 243.129 465.455C242.34 466.308 251.603 453.558 253.728 451.036C255.322 449.145 267.356 431.277 273.278 422.454C274.187 421.099 272.778 419.522 271.375 420.354V420.354C268.78 421.893 277.169 409.276 278.477 405.866C279.784 402.457 271.119 411.133 267.547 413.974C263.973 416.814 269.288 411.066 280.26 397.207C287.621 387.907 295.913 374.468 300.573 366.631C301.794 364.577 299.738 362.443 298.042 364.127V364.127C295.927 366.227 302.861 352.119 303.936 348.317C305.01 344.516 295.814 354.326 293.458 356.851C291.094 359.379 299.166 346.465 308.211 333.458Z" fill="#265E73"/>
<path fill-rule="evenodd" clip-rule="evenodd" d="M236.22 484.794C234.791 484.744 233.364 484.952 232.008 485.406L219.347 489.649C213.316 491.67 207.991 485.152 211.175 479.645L219.461 465.314C220.601 463.343 218.471 461.241 216.797 462.785V462.785C214.738 464.684 222.554 454.022 223.796 451.555V451.555C224.819 449.523 219.546 450.07 220.489 448.001L235.711 414.606C236.584 412.69 234.081 411.039 232.468 412.392V412.392C230.827 413.769 243.958 392.997 244.925 391.596C245.891 390.195 242.829 393.099 240.963 394.467V394.467C239.836 395.293 239.058 392.052 238.102 393.071V393.071C235.923 395.391 256.396 352.879 263.181 338.85C263.695 337.787 262.397 336.784 261.477 337.524V337.524C260.548 338.271 259.257 337.222 259.798 336.16L266.472 323.049C266.998 322.016 265.738 320.997 264.836 321.726V321.726C263.338 322.934 272.38 310.629 272.98 309.389C273.578 308.148 268.318 312.779 265.688 315.095C263.058 317.411 286.991 279.462 287.822 278.166V278.166C287.942 277.984 287.96 278.498 288.044 278.7L297.622 301.681C297.886 302.314 297.11 302.866 296.598 302.409V302.409C296.111 301.973 295.359 302.457 295.554 303.082L303.796 329.423C304.096 330.383 302.941 331.129 302.19 330.46V330.46C301.403 329.759 300.205 330.603 300.607 331.577C303.674 339.005 309.884 354.133 309.363 353.564V353.564C308.746 352.892 307.607 353.571 307.94 354.421C309.014 357.157 310.07 359.965 309.706 359.531V359.531C309.175 358.898 308.197 359.513 308.524 360.271C313.273 371.293 326.402 401.84 325.315 400.209C325.153 399.968 324.902 399.651 324.586 399.283C323.285 397.767 321.14 399.394 322.108 401.142L323.92 404.411C324.241 404.99 323.606 405.629 323.024 405.312V405.312C322.487 405.019 321.867 405.533 322.081 406.106C325.025 413.989 337.54 447.504 337.101 446.349C336.604 445.038 326.595 431.641 327.035 433.058C327.476 434.473 331.476 442.804 330.335 441.902V441.902C329.494 441.236 328.66 442.128 329.111 443.102C331.541 448.348 337.69 461.389 343.808 472.488V472.488C345.193 474.989 338.381 473.4 339.41 476.067L339.968 477.512C340.007 477.612 340.045 477.702 340.093 477.798C340.882 479.392 348.298 494.483 345.263 492.578C342.659 490.944 333.091 489.077 329.602 488.436C328.748 488.279 327.883 488.189 327.015 488.154L286.728 486.544L236.22 484.794Z" fill="#1F677D"/>
<path fill-rule="evenodd" clip-rule="evenodd" d="M120.344 300.738V300.738C120.411 300.738 120.409 300.85 120.443 300.908L133.248 322.924C133.528 323.406 132.932 323.917 132.498 323.568V323.568C132.065 323.219 131.47 323.727 131.748 324.209L134.877 329.641C135.253 330.294 134.445 330.982 133.86 330.508V330.508C133.315 330.066 132.54 330.638 132.801 331.289L143.515 357.971C143.756 358.571 143.036 359.096 142.538 358.683V358.683C142.004 358.239 141.254 358.869 141.599 359.471L148.117 370.847C148.345 371.245 147.832 371.652 147.496 371.339V371.339C147.193 371.056 146.712 371.365 146.843 371.758L147.889 374.902C147.974 375.159 147.656 375.357 147.463 375.167V375.167C147.245 374.951 146.9 375.229 147.064 375.488L153.668 385.884C153.926 386.29 153.395 386.731 153.043 386.403V386.403C152.719 386.101 152.212 386.457 152.388 386.865L153.873 390.31L155.367 394.799C155.502 395.203 154.97 395.487 154.709 395.151V395.151C154.427 394.788 153.864 395.146 154.073 395.555L162.069 411.217C162.246 411.563 161.77 411.866 161.531 411.56V411.56C161.292 411.254 160.817 411.556 160.992 411.902L174.624 438.723C175.067 439.594 174.065 440.485 173.252 439.944V439.944C172.441 439.404 171.44 440.291 171.879 441.161L172.863 443.114C173.153 443.691 172.449 444.254 171.95 443.844V443.844C171.436 443.421 170.72 444.03 171.055 444.605L187.214 472.388C187.625 473.094 186.739 473.836 186.116 473.308V473.308C185.55 472.829 184.714 473.405 184.96 474.104L186.404 478.219C186.778 479.285 185.497 480.157 184.642 479.417V479.417C183.759 478.652 182.449 479.607 182.907 480.682L190.384 498.235C190.622 498.793 190.199 499.408 189.593 499.385V499.385C189.027 499.365 188.608 499.909 188.769 500.452C190.191 505.239 190.81 507.851 190.39 507.638C190.315 507.6 190.175 507.56 189.971 507.516C189.947 507.511 189.93 507.538 189.945 507.557V507.557C189.961 507.578 189.939 507.607 189.914 507.597L189.538 507.439C189.529 507.435 189.523 507.432 189.512 507.431C176.235 505.219 26.2905 497.095 26.2408 497.092C26.2393 497.092 26.24 497.092 26.2385 497.092V497.092C24.1773 496.984 22.9708 494.722 24.0287 492.95L42.2713 462.388C42.9891 461.185 41.6332 459.817 40.4243 460.524V460.524C39.2436 461.214 37.9002 459.919 38.5467 458.714L43.31 449.835C43.5528 449.382 43.118 448.865 42.6305 449.027V449.027C42.0654 449.214 41.6292 448.517 42.0453 448.091L50.2571 439.687C50.8812 439.049 50.179 438.014 49.3549 438.358V438.358C48.5824 438.681 47.8801 437.774 48.3856 437.107L51.0478 433.592C51.7163 432.709 50.7426 431.526 49.7477 432.012V432.012C48.7782 432.485 47.8094 431.366 48.4167 430.475L67.0253 403.155C67.3573 402.667 66.864 402.042 66.3127 402.252V402.252C65.7425 402.469 65.2478 401.799 65.6232 401.318L67.8792 398.428C68.178 398.045 67.7268 397.532 67.309 397.779V397.779C66.8602 398.045 66.4046 397.446 66.7805 397.085L70.1293 393.862C70.3211 393.678 70.1973 393.353 69.9313 393.344V393.344C69.7124 393.335 69.5749 393.104 69.6724 392.908L70.3907 391.462C70.5966 391.047 70.0645 390.663 69.7357 390.989V390.989C69.3778 391.343 68.8199 390.864 69.1163 390.457L91.3537 359.901C91.7316 359.382 91.1909 358.693 90.5967 358.937V358.937C89.9974 359.183 89.4562 358.481 89.8459 357.964L90.8405 356.644C91.1625 356.216 90.6472 355.663 90.1979 355.954V355.954C89.7479 356.245 89.2324 355.69 89.5564 355.263L93.7206 349.773C93.9213 349.509 93.5807 349.175 93.3201 349.381V349.381C93.07 349.578 92.735 349.275 92.9067 349.007L101.059 336.249C101.26 335.934 100.843 335.594 100.575 335.853V335.853C100.319 336.101 99.9126 335.799 100.076 335.483L107.312 321.481C107.501 321.114 107.16 320.7 106.764 320.815V320.815C106.334 320.941 105.99 320.451 106.253 320.089L120.217 300.905C120.237 300.867 120.253 300.837 120.267 300.814C120.286 300.782 120.307 300.733 120.344 300.738V300.738Z" fill="#265E73"/>
<path fill-rule="evenodd" clip-rule="evenodd" d="M115.312 493.884C113.883 493.835 112.456 494.042 111.1 494.497L98.439 498.739C92.4076 500.76 87.0832 494.242 90.2671 488.736L98.5531 474.405C99.6929 472.433 97.5625 470.332 95.8885 471.875V471.875C93.8299 473.774 101.646 463.112 102.888 460.645V460.645C103.91 458.614 98.6395 459.161 99.5826 457.092L114.805 423.695C115.678 421.779 113.175 420.129 111.561 421.481V421.481C109.921 422.857 123.052 402.086 124.018 400.686C124.985 399.287 121.923 402.189 120.056 403.558V403.558C118.93 404.384 118.152 401.143 117.195 402.161V402.161C115.016 404.481 135.49 361.969 142.275 347.94C142.789 346.877 141.491 345.875 140.571 346.615V346.615C139.642 347.362 138.351 346.313 138.891 345.25L145.565 332.139C146.091 331.106 144.831 330.087 143.93 330.816V330.816C142.432 332.024 151.474 319.72 152.074 318.479C152.672 317.237 147.412 321.869 144.782 324.185C142.152 326.502 166.085 288.552 166.916 287.257V287.257C167.036 287.074 167.054 287.589 167.138 287.79L176.716 310.771C176.98 311.404 176.203 311.957 175.692 311.499V311.499C175.204 311.063 174.453 311.548 174.648 312.172L182.889 338.514C183.189 339.474 182.035 340.219 181.283 339.55V339.55C180.496 338.849 179.299 339.693 179.701 340.667C182.768 348.095 188.978 363.223 188.457 362.654V362.654C187.84 361.982 186.701 362.662 187.034 363.511C188.108 366.247 189.164 369.054 188.799 368.621V368.621C188.268 367.988 187.29 368.603 187.617 369.362C192.367 380.384 205.495 410.93 204.408 409.3C204.247 409.058 203.996 408.742 203.68 408.373C202.379 406.857 200.234 408.485 201.203 410.232L203.013 413.499C203.335 414.079 202.7 414.718 202.118 414.401V414.401C201.58 414.108 200.961 414.621 201.175 415.195C204.119 423.078 216.634 456.593 216.195 455.436C215.698 454.125 205.689 440.728 206.128 442.145C206.569 443.562 210.568 451.893 209.428 450.989V450.989C208.588 450.323 207.753 451.216 208.204 452.189C210.634 457.436 216.783 470.477 222.902 481.575V481.575C224.286 484.076 217.474 482.487 218.504 485.154L219.061 486.599C219.1 486.7 219.139 486.789 219.187 486.886C219.976 488.48 227.391 503.57 224.357 501.665C221.753 500.031 212.184 498.164 208.696 497.523C207.841 497.366 206.977 497.276 206.109 497.241L165.822 495.632L115.312 493.884Z" fill="#1F677D"/>
<path fill-rule="evenodd" clip-rule="evenodd" d="M58.5987 302.943V302.943C58.6655 302.948 58.6635 303.056 58.6972 303.114L71.5026 325.13C71.7828 325.611 71.187 326.123 70.7532 325.773V325.773C70.3203 325.424 69.7252 325.933 70.0027 326.415L73.1314 331.847C73.5074 332.499 72.6998 333.188 72.1147 332.714V332.714C71.5702 332.272 70.795 332.844 71.0561 333.494L81.7695 360.177C82.0105 360.777 81.2905 361.301 80.7931 360.888V360.888C80.2593 360.444 79.5093 361.075 79.8544 361.677L86.3718 373.052C86.6001 373.451 86.0872 373.858 85.7513 373.544V373.544C85.4478 373.262 84.9673 373.57 85.0982 373.964L86.1436 377.108C86.2291 377.365 85.9106 377.563 85.7178 377.372V377.372C85.4995 377.156 85.1545 377.434 85.3191 377.694L91.9229 388.09C92.1806 388.495 91.6496 388.936 91.2981 388.609V388.609C90.9738 388.306 90.4673 388.663 90.6428 389.07L92.1278 392.516L93.6221 397.005C93.7567 397.409 93.2248 397.693 92.9638 397.356V397.356C92.6821 396.993 92.1184 397.351 92.3274 397.76L100.324 413.422C100.501 413.768 100.025 414.072 99.7858 413.765V413.765C99.547 413.459 99.0714 413.762 99.2473 414.108L112.879 440.929C113.322 441.799 112.32 442.69 111.507 442.149V442.149C110.696 441.609 109.695 442.496 110.133 443.367L111.117 445.32C111.408 445.896 110.704 446.46 110.205 446.05V446.05C109.691 445.627 108.975 446.235 109.31 446.811L125.469 474.593C125.88 475.299 124.994 476.042 124.371 475.514V475.514C123.805 475.035 122.969 475.61 123.215 476.31L124.659 480.425C125.033 481.491 123.751 482.363 122.897 481.623V481.623C122.014 480.858 120.704 481.812 121.162 482.888L128.639 500.441C128.877 500.998 128.454 501.613 127.848 501.591V501.591C127.281 501.57 126.863 502.114 127.024 502.658C128.445 507.444 129.065 510.057 128.645 509.844C128.57 509.806 128.43 509.765 128.225 509.721C128.202 509.716 128.185 509.743 128.2 509.762V509.762C128.216 509.783 128.194 509.813 128.169 509.802L127.793 509.644C127.784 509.64 127.777 509.638 127.767 509.636C114.49 507.425 -35.4543 499.3 -35.5043 499.298C-35.5059 499.298 -35.5051 499.298 -35.5066 499.298V499.298C-37.5678 499.189 -38.7743 496.928 -37.7165 495.156L-19.4738 464.593C-18.756 463.391 -20.1119 462.023 -21.3208 462.729V462.729C-22.5015 463.42 -23.8449 462.125 -23.1984 460.92L-18.435 452.04C-18.1923 451.587 -18.627 451.071 -19.1144 451.232V451.232C-19.6796 451.42 -20.1157 450.722 -19.6996 450.296L-11.4867 441.893C-10.8625 441.254 -11.5647 440.22 -12.3887 440.564V440.564C-13.1611 440.886 -13.8634 439.98 -13.358 439.313L-10.6956 435.797C-10.0271 434.915 -11.0008 433.731 -11.9957 434.217V434.217C-12.9651 434.691 -13.934 433.572 -13.3266 432.68L5.28195 405.36C5.61399 404.873 5.12065 404.248 4.56938 404.458V404.458C3.99914 404.674 3.50443 404.004 3.87985 403.523L6.13587 400.633C6.43462 400.25 5.9834 399.737 5.56567 399.985V399.985C5.11687 400.251 4.66128 399.652 5.03716 399.29L8.38594 396.068C8.57773 395.883 8.45394 395.559 8.18797 395.549V395.549C7.96908 395.541 7.83155 395.31 7.929 395.114L8.64735 393.667C8.85327 393.253 8.32122 392.869 7.99236 393.194V393.194C7.63444 393.549 7.0766 393.07 7.37303 392.662L29.6103 362.107C29.9882 361.588 29.4475 360.899 28.8533 361.143V361.143C28.254 361.388 27.7128 360.687 28.1026 360.17L29.0972 358.849C29.4191 358.422 28.9038 357.868 28.4546 358.159V358.159C28.0046 358.451 27.489 357.895 27.813 357.468L31.9773 351.979C32.1779 351.714 31.8373 351.38 31.5768 351.586V351.586C31.3266 351.784 30.9917 351.481 31.1633 351.212L39.3157 338.455C39.5168 338.14 39.0999 337.799 38.8315 338.059V338.059C38.5753 338.307 38.1693 338.005 38.3329 337.688L45.5686 323.686C45.758 323.32 45.4163 322.905 45.0204 323.021V323.021C44.5908 323.146 44.2463 322.656 44.5096 322.294L58.4735 303.11C58.4937 303.072 58.5108 303.042 58.5242 303.018C58.5426 302.987 58.5622 302.943 58.5987 302.943V302.943Z" fill="#1F677D"/>
<path fill-rule="evenodd" clip-rule="evenodd" d="M-33.7051 299.564V299.564C-33.6379 299.564 -33.6402 299.676 -33.6064 299.735L-20.8012 321.75C-20.5211 322.232 -21.1168 322.744 -21.5506 322.394V322.394C-21.9835 322.045 -22.5786 322.554 -22.3011 323.036L-19.1724 328.467C-18.7964 329.12 -19.604 329.809 -20.1892 329.334V329.334C-20.7336 328.893 -21.5089 329.465 -21.2477 330.115L-10.5343 356.798C-10.2934 357.398 -11.0134 357.922 -11.5107 357.509V357.509C-12.0445 357.065 -12.7946 357.695 -12.4495 358.298L-5.93204 369.673C-5.70374 370.072 -6.21663 370.478 -6.55256 370.165V370.165C-6.85602 369.882 -7.33651 370.191 -7.20562 370.584L-6.16034 373.728C-6.07479 373.985 -6.3934 374.183 -6.5862 373.993V373.993C-6.80453 373.777 -7.14967 374.055 -6.98506 374.314L-0.382203 384.71C-0.124513 385.116 -0.65568 385.557 -1.00722 385.23V385.23C-1.33154 384.927 -1.83814 385.284 -1.66263 385.691L-0.177763 389.136L1.31655 393.625C1.45106 394.029 0.919192 394.313 0.658161 393.977V393.977C0.376508 393.614 -0.187162 393.972 0.021804 394.381L8.01836 410.043C8.19502 410.389 7.71918 410.692 7.48017 410.386V410.386C7.24139 410.08 6.76585 410.382 6.94171 410.728L20.5736 437.55C21.016 438.42 20.0144 439.311 19.2015 438.77V438.77C18.3902 438.23 17.3895 439.117 17.8279 439.987L18.8118 441.94C19.1023 442.517 18.3981 443.08 17.8994 442.67V442.67C17.3852 442.247 16.6693 442.856 17.004 443.432L33.1637 471.214C33.5744 471.92 32.6886 472.662 32.0652 472.135V472.135C31.4994 471.656 30.6635 472.231 30.909 472.931L32.3533 477.045C32.7275 478.112 31.4458 478.983 30.5917 478.243V478.243C29.7084 477.478 28.3981 478.433 28.8561 479.508L36.3336 497.061C36.571 497.619 36.148 498.234 35.5425 498.212V498.212C34.9759 498.191 34.5573 498.735 34.7187 499.278C36.1398 504.065 36.7597 506.678 36.3395 506.465C36.2647 506.427 36.124 506.386 35.9198 506.342C35.8962 506.337 35.8793 506.364 35.8941 506.383V506.383C35.9105 506.404 35.8881 506.433 35.8635 506.423L35.4877 506.265C35.4782 506.261 35.4719 506.259 35.4617 506.257C22.1841 504.046 -127.76 495.921 -127.81 495.918C-127.811 495.918 -127.811 495.918 -127.812 495.918V495.918C-129.873 495.81 -131.08 493.549 -130.022 491.776L-111.779 461.214C-111.062 460.011 -112.417 458.643 -113.626 459.35V459.35C-114.807 460.04 -116.151 458.745 -115.504 457.54L-110.741 448.661C-110.498 448.208 -110.933 447.691 -111.42 447.853V447.853C-111.985 448.041 -112.422 447.343 -112.005 446.917L-103.794 438.514C-103.169 437.875 -103.872 436.84 -104.696 437.184V437.184C-105.468 437.507 -106.171 436.6 -105.665 435.933L-103.003 432.418C-102.334 431.535 -103.308 430.352 -104.303 430.838V430.838C-105.272 431.312 -106.241 430.193 -105.634 429.301L-87.0254 401.981C-86.6934 401.494 -87.1867 400.868 -87.738 401.078V401.078C-88.3082 401.295 -88.8029 400.625 -88.4275 400.144L-86.1715 397.254C-85.8727 396.871 -86.324 396.358 -86.7417 396.606V396.606C-87.1905 396.871 -87.6461 396.273 -87.2702 395.911L-83.9214 392.689C-83.7296 392.504 -83.8534 392.18 -84.1194 392.17V392.17C-84.3383 392.162 -84.4758 391.93 -84.3784 391.734L-83.6599 390.288C-83.454 389.873 -83.986 389.489 -84.3148 389.815V389.815C-84.6726 390.169 -85.2304 389.69 -84.934 389.283L-62.6954 358.728C-62.3175 358.209 -62.8581 357.52 -63.4523 357.763V357.763C-64.0516 358.009 -64.5928 357.308 -64.2031 356.79L-63.2084 355.47C-62.8865 355.042 -63.4018 354.489 -63.851 354.78V354.78C-64.301 355.071 -64.8166 354.516 -64.4926 354.089L-60.3283 348.6C-60.1277 348.335 -60.4683 348.001 -60.7288 348.207V348.207C-60.979 348.405 -61.3139 348.101 -61.1423 347.833L-52.9899 335.075C-52.7888 334.761 -53.2057 334.42 -53.4741 334.68V334.68C-53.7303 334.928 -54.1363 334.626 -53.9727 334.309L-46.737 320.307C-46.5476 319.941 -46.8893 319.526 -47.2852 319.641V319.641C-47.7148 319.767 -48.0593 319.277 -47.796 318.915L-33.8321 299.731C-33.8115 299.694 -33.7947 299.664 -33.7816 299.641C-33.763 299.608 -33.7427 299.564 -33.7051 299.564V299.564Z" fill="#1F677D"/>
<path fill-rule="evenodd" clip-rule="evenodd" d="M294.59 390.461C302.349 379.303 305.428 370.444 306.6 366.473C307.042 364.975 307.461 364.996 307.905 366.493C312.158 380.856 319.108 390.377 326.578 399.748C327.048 400.338 326.433 401.173 325.731 400.896V400.896C325.033 400.621 324.419 401.445 324.882 402.035L329.322 407.688C329.852 408.363 329.008 409.252 328.306 408.757V408.757C327.635 408.283 326.804 409.085 327.253 409.773L329.615 413.392C330.105 414.143 329.249 415.043 328.475 414.591V414.591C327.725 414.153 326.878 414.989 327.307 415.744L343.877 444.958C344.245 445.605 343.576 446.348 342.893 446.049V446.049C342.207 445.749 341.537 446.501 341.914 447.149L342.975 448.968C343.202 449.358 342.767 449.798 342.375 449.575V449.575C341.96 449.339 341.515 449.836 341.799 450.22C345.154 454.769 354.095 466.923 353.06 465.902V465.902C350.756 463.632 347.174 466.642 348.685 469.502L361.699 494.138C361.958 494.627 361.43 495.156 360.94 494.9V494.9C360.404 494.619 359.862 495.266 360.233 495.744L362.899 499.181C362.911 499.196 362.916 499.203 362.928 499.219C363.287 499.722 372.371 512.459 370.35 511.033C369.67 510.553 367.941 509.266 365.93 507.755C364.579 506.741 363.397 509.776 364.026 511.344V511.344C364.479 512.472 362.956 512.058 361.742 511.997L344.972 511.155L325.8 508.982C324.83 508.872 323.853 508.833 322.877 508.866L316.828 509.069L285.431 509.508C284.265 509.524 283.103 509.641 281.96 509.871C280.594 510.145 278.623 510.554 276.834 510.969V510.969C272.371 512.006 268.397 505.725 264.2 507.565C262.714 508.217 261.3 508.894 260.241 509.518V509.518C257.762 510.979 255.769 505.619 253.574 507.478C253.47 507.566 253.367 507.655 253.264 507.744V507.744C250.134 510.471 250.721 501.945 246.947 503.675C245.662 504.263 244.252 505.014 242.727 505.969C239.98 507.69 240.241 506.966 242.689 503.643C243.429 502.639 242.245 501.353 241.193 502.021V502.021C240.173 502.669 238.974 501.46 239.625 500.443C242.129 496.526 245.32 491.403 244.835 491.464C244.05 491.562 255.573 478.72 257.038 476.625C258.502 474.531 250.848 479.683 250.312 480.263C249.775 480.843 256.076 472.168 257.523 470.452C258.606 469.166 266.794 457.009 270.823 451.007C271.441 450.086 270.483 449.013 269.528 449.578V449.578C267.762 450.624 273.471 442.042 274.36 439.723C275.249 437.403 269.355 443.306 266.924 445.239C264.494 447.172 268.11 443.261 275.573 433.832C280.581 427.506 286.222 418.362 289.391 413.03C290.222 411.634 288.823 410.182 287.669 411.326V411.326C286.231 412.754 290.946 403.155 291.678 400.57C292.408 397.984 286.153 404.658 284.55 406.376C282.945 408.095 288.438 399.31 294.59 390.461Z" fill="#164D61"/>
<path fill-rule="evenodd" clip-rule="evenodd" d="M81.664 367.503C90.085 355.393 93.427 345.777 94.6987 341.468C95.1784 339.843 95.6336 339.865 96.1149 341.49C100.731 357.078 108.273 367.411 116.381 377.582C116.892 378.223 116.225 379.129 115.463 378.829V378.829C114.705 378.53 114.039 379.424 114.542 380.064L119.359 386.2C119.935 386.934 119.018 387.899 118.256 387.361V387.361C117.527 386.847 116.625 387.717 117.112 388.464L119.676 392.392C120.208 393.207 119.279 394.184 118.438 393.693V393.693C117.624 393.218 116.705 394.125 117.17 394.945L135.155 426.651C135.554 427.354 134.828 428.159 134.088 427.836V427.836C133.343 427.51 132.616 428.326 133.025 429.029L134.176 431.005C134.423 431.428 133.951 431.905 133.525 431.663V431.663C133.075 431.407 132.592 431.947 132.9 432.364C136.542 437.301 146.245 450.491 145.12 449.383V449.383C142.619 446.919 138.732 450.186 140.372 453.29L154.497 480.027C154.778 480.558 154.205 481.133 153.673 480.854V480.854C153.091 480.55 152.504 481.252 152.906 481.771L155.799 485.5C155.812 485.516 155.818 485.524 155.83 485.542C156.221 486.088 166.081 499.91 163.887 498.362C163.148 497.842 161.272 496.444 159.09 494.805C157.623 493.703 156.34 496.998 157.023 498.701V498.701C157.514 499.926 155.861 499.476 154.543 499.41L136.343 498.496L115.413 496.124C114.442 496.014 113.465 495.975 112.488 496.008L105.802 496.233L71.5774 496.712C70.411 496.729 69.2489 496.846 68.1051 497.075C66.6195 497.373 64.4014 497.831 62.3946 498.297V498.297C57.5504 499.422 53.2367 492.604 48.6823 494.602C47.0697 495.309 45.5357 496.044 44.3865 496.721V496.721C41.6957 498.307 39.5329 492.488 37.1502 494.507C37.0379 494.602 36.9263 494.698 36.8156 494.795V494.795C33.4175 497.755 34.0547 488.499 29.9581 490.377C28.5647 491.016 27.0342 491.83 25.38 492.866C22.3985 494.734 22.6817 493.948 25.3382 490.343C26.1411 489.254 24.8566 487.857 23.7142 488.583V488.583C22.6081 489.285 21.3068 487.974 22.0128 486.87C24.7311 482.619 28.1949 477.058 27.6678 477.124C26.8158 477.23 39.324 463.292 40.9115 461.019C42.4991 458.746 34.1944 464.338 33.6106 464.967C33.0285 465.597 39.8673 456.182 41.4372 454.32C42.6142 452.923 51.4986 439.732 55.8716 433.217C56.5432 432.216 55.5024 431.051 54.4657 431.666V431.666C52.5501 432.802 58.7433 423.486 59.7082 420.968C60.673 418.451 54.277 424.857 51.6381 426.955C48.9992 429.052 52.924 424.809 61.0241 414.576C66.4595 407.709 72.5819 397.785 76.0219 391.998C76.9234 390.482 75.4047 388.906 74.1531 390.15V390.15C72.592 391.699 77.711 381.282 78.5048 378.477C79.2986 375.669 72.5091 382.913 70.7681 384.778C69.0253 386.641 74.9857 377.106 81.664 367.503Z" fill="#164D61"/>
<path fill-rule="evenodd" clip-rule="evenodd" d="M-4.43949 375.03C3.31895 363.872 6.39842 355.013 7.5703 351.042C8.01243 349.544 8.43175 349.564 8.87519 351.062C13.1283 365.425 20.0778 374.946 27.5478 384.317C28.0183 384.907 27.4032 385.742 26.7011 385.465V385.465C26.0032 385.19 25.3894 386.014 25.8528 386.604L30.292 392.257C30.8223 392.932 29.978 393.821 29.2764 393.326V393.326C28.6053 392.852 27.7739 393.654 28.223 394.342L30.5855 397.961C31.0757 398.712 30.2196 399.612 29.4451 399.159V399.159C28.695 398.722 27.8486 399.558 28.2771 400.313L44.8475 429.527C45.2148 430.174 44.5458 430.916 43.8637 430.618V430.618C43.1773 430.318 42.5072 431.07 42.8844 431.717L43.945 433.537C44.1723 433.927 43.7374 434.367 43.3451 434.143V434.143C42.9301 433.907 42.4854 434.405 42.7688 434.789C46.1246 439.338 55.0658 451.492 54.0301 450.471V450.471C51.7268 448.199 48.1441 451.21 49.6554 454.071L62.6697 478.706C62.9281 479.196 62.4004 479.725 61.9102 479.469V479.469C61.374 479.188 60.8328 479.835 61.2037 480.313L63.8689 483.75C63.881 483.765 63.8865 483.772 63.898 483.788C64.2571 484.291 73.3417 497.028 71.3203 495.602C70.6405 495.122 68.9117 493.834 66.9003 492.324C65.5494 491.31 64.3676 494.345 64.9964 495.913V495.913C65.4488 497.041 63.9263 496.627 62.7126 496.566L45.9424 495.724L26.7709 493.551C25.8003 493.441 24.8229 493.402 23.8467 493.435L17.8004 493.638L-13.5973 494.076C-14.7632 494.093 -15.9247 494.21 -17.0679 494.44C-18.4337 494.714 -20.4052 495.123 -22.1936 495.538V495.538C-26.6568 496.575 -30.6315 490.294 -34.8276 492.134C-36.3134 492.786 -37.7266 493.463 -38.7853 494.087V494.087C-41.2641 495.547 -43.2569 490.187 -45.4521 492.047C-45.5561 492.135 -45.6593 492.224 -45.7617 492.313V492.313C-48.8924 495.039 -48.3056 486.514 -52.0795 488.244C-53.3638 488.832 -54.7746 489.583 -56.2996 490.538C-59.0461 492.259 -58.7849 491.535 -56.3371 488.212C-55.5975 487.208 -56.7811 485.921 -57.8336 486.59V486.59C-58.8529 487.237 -60.0519 486.029 -59.4014 485.011C-56.897 481.095 -53.706 475.972 -54.1916 476.032C-54.9766 476.131 -43.4527 463.289 -41.9886 461.194C-40.5246 459.1 -48.1783 464.252 -48.7146 464.832C-49.2508 465.411 -42.95 456.737 -41.5036 455.021C-40.4203 453.734 -32.2327 441.578 -28.2034 435.576C-27.585 434.654 -28.5436 433.582 -29.4981 434.147V434.147C-31.2638 435.193 -25.5557 426.611 -24.6667 424.291C-23.7776 421.972 -29.671 427.875 -32.1017 429.808C-34.5324 431.74 -30.9163 427.83 -23.4531 418.401C-18.4453 412.075 -12.8045 402.931 -9.63485 397.599C-8.80443 396.202 -10.2033 394.751 -11.3577 395.895V395.895C-12.7953 397.323 -8.08028 387.724 -7.34824 385.14C-6.61796 382.554 -12.8729 389.228 -14.4764 390.946C-16.0851 392.664 -10.5921 383.879 -4.43949 375.03Z" fill="#164D61"/>
<path fill-rule="evenodd" clip-rule="evenodd" d="M151.346 506.58C150.13 506.538 148.914 506.684 147.743 507.015L133.15 511.138C127.631 512.698 123.157 506.539 126.347 501.772L134.249 489.965C135.475 488.133 133.542 485.95 131.811 487.316V487.316C129.732 488.959 137.606 479.713 138.849 477.569V477.569C139.982 475.619 134.697 475.915 135.746 473.919L150.467 445.908C151.435 444.066 149.088 442.286 147.398 443.501V443.501C145.739 444.69 158.946 426.667 159.92 425.453C160.894 424.238 157.8 426.751 155.912 427.933V427.933C154.791 428.635 154.177 425.618 153.199 426.511C153.129 426.575 153.06 426.638 152.993 426.7C150.808 428.696 171.041 392.281 177.979 379.851C178.544 378.838 177.339 377.777 176.383 378.434V378.434C175.417 379.098 174.223 377.986 174.817 376.975L181.207 366.109C181.784 365.127 180.62 364.047 179.683 364.694V364.694C178.168 365.739 187.277 355.069 187.878 353.991C188.478 352.912 183.162 356.92 180.505 358.923C177.847 360.926 201.918 327.996 202.754 326.871V326.871C202.871 326.715 202.897 327.161 202.983 327.335L212.792 347.231C213.092 347.839 212.365 348.436 211.827 348.023V348.023C211.317 347.632 210.613 348.152 210.837 348.755L219.261 371.386C219.607 372.313 218.525 373.114 217.738 372.514V372.514C216.911 371.882 215.79 372.795 216.247 373.731C219.458 380.307 225.694 393.153 225.166 392.661V392.661C224.51 392.05 223.443 392.792 223.82 393.605C224.896 395.927 225.917 398.23 225.555 397.861V397.861C224.989 397.284 224.083 397.961 224.45 398.681C229.429 408.458 242.809 434.796 241.7 433.379C241.468 433.083 241.057 432.659 240.535 432.16C239.217 430.903 237.375 432.53 238.37 434.056L240.201 436.862C240.557 437.407 239.974 438.077 239.385 437.8V437.8C238.844 437.545 238.275 438.095 238.517 438.642C241.677 445.78 254.45 474.633 253.998 473.631C253.483 472.486 243.217 460.762 243.672 461.998C244.131 463.234 248.253 470.513 247.087 469.72V469.72C246.232 469.137 245.463 470.049 245.96 470.957C248.537 475.664 254.786 486.872 260.992 496.436V496.436C262.553 498.791 255.698 497.674 256.873 500.244L257.117 500.778C257.162 500.875 257.207 500.963 257.261 501.054C258.112 502.513 265.7 515.614 262.61 513.945C259.897 512.479 249.813 510.763 246.453 510.22C245.717 510.101 244.982 510.032 244.237 510.002L203.062 508.377L151.346 506.58Z" fill="#164D61"/>
</g>
<g filter="url(#filter0_d_107_111)">
<mask id="path-48-inside-1_107_111" fill="white">
<path fill-rule="evenodd" clip-rule="evenodd" d="M603.053 290.537C598.712 287.026 592.35 290.826 593.383 296.312L605.722 361.825C606.677 366.898 613.168 368.476 616.346 364.408L622.577 356.433C622.645 356.566 622.718 356.698 622.796 356.828L636.295 379.429C638.277 382.748 642.575 383.831 645.894 381.849L653.308 377.421C656.627 375.439 657.71 371.141 655.728 367.822L642.506 345.684C642.316 345.367 642.105 345.07 641.874 344.792L652.121 343.041C657.209 342.172 658.897 335.709 654.884 332.462L603.053 290.537Z"/>
</mask>
<path fill-rule="evenodd" clip-rule="evenodd" d="M603.053 290.537C598.712 287.026 592.35 290.826 593.383 296.312L605.722 361.825C606.677 366.898 613.168 368.476 616.346 364.408L622.577 356.433C622.645 356.566 622.718 356.698 622.796 356.828L636.295 379.429C638.277 382.748 642.575 383.831 645.894 381.849L653.308 377.421C656.627 375.439 657.71 371.141 655.728 367.822L642.506 345.684C642.316 345.367 642.105 345.07 641.874 344.792L652.121 343.041C657.209 342.172 658.897 335.709 654.884 332.462L603.053 290.537Z" fill="black"/>
<path d="M593.383 296.312L586.504 297.608L586.504 297.608L593.383 296.312ZM603.053 290.537L598.65 295.979L598.65 295.979L603.053 290.537ZM605.722 361.825L612.601 360.529L612.601 360.529L605.722 361.825ZM616.346 364.408L610.83 360.099L610.83 360.099L616.346 364.408ZM622.577 356.433L628.805 353.237L623.804 343.493L617.061 352.124L622.577 356.433ZM622.796 356.828L616.786 360.417L616.786 360.417L622.796 356.828ZM636.295 379.429L642.304 375.839L642.304 375.839L636.295 379.429ZM645.894 381.849L642.304 375.839L642.304 375.839L645.894 381.849ZM653.308 377.421L656.897 383.431L656.897 383.431L653.308 377.421ZM655.728 367.822L661.738 364.233L661.738 364.233L655.728 367.822ZM642.506 345.684L648.515 342.095L648.515 342.094L642.506 345.684ZM641.874 344.792L640.695 337.892L628.722 339.938L636.495 349.272L641.874 344.792ZM652.121 343.041L653.3 349.941L653.3 349.941L652.121 343.041ZM654.884 332.462L650.481 337.905L654.884 332.462ZM600.262 295.016C600.283 295.13 600.277 295.386 600.149 295.65C600.041 295.872 599.901 295.995 599.792 296.06C599.683 296.125 599.508 296.19 599.261 296.18C598.968 296.167 598.74 296.052 598.65 295.979L607.455 285.094C598.051 277.487 584.265 285.721 586.504 297.608L600.262 295.016ZM612.601 360.529L600.262 295.016L586.504 297.608L598.843 363.121L612.601 360.529ZM610.83 360.099C610.91 359.997 611.088 359.85 611.333 359.772C611.546 359.703 611.724 359.711 611.854 359.743C611.984 359.775 612.147 359.849 612.304 360.008C612.485 360.19 612.577 360.402 612.601 360.529L598.843 363.121C600.913 374.112 614.976 377.532 621.862 368.718L610.83 360.099ZM617.061 352.124L610.83 360.099L621.862 368.718L628.093 360.743L617.061 352.124ZM628.806 353.239C628.805 353.238 628.805 353.237 628.805 353.237L616.349 359.629C616.486 359.896 616.632 360.159 616.786 360.417L628.806 353.239ZM642.304 375.839L628.806 353.239L616.786 360.417L630.285 383.018L642.304 375.839ZM642.304 375.839L642.304 375.839L630.285 383.018C634.25 389.656 642.845 391.823 649.483 387.859L642.304 375.839ZM649.718 371.411L642.304 375.839L649.483 387.859L656.897 383.431L649.718 371.411ZM649.718 371.411L649.718 371.411L656.897 383.431C663.535 379.466 665.702 370.871 661.738 364.233L649.718 371.411ZM636.496 349.273L649.718 371.411L661.738 364.233L648.515 342.095L636.496 349.273ZM636.495 349.272C636.494 349.271 636.495 349.271 636.496 349.273L648.515 342.094C648.138 341.463 647.716 340.868 647.253 340.313L636.495 349.272ZM650.942 336.141L640.695 337.892L643.053 351.692L653.3 349.941L650.942 336.141ZM650.481 337.905C650.381 337.823 650.237 337.642 650.163 337.396C650.098 337.182 650.109 337.004 650.143 336.874C650.176 336.745 650.254 336.584 650.415 336.429C650.6 336.251 650.814 336.163 650.942 336.141L653.3 349.941C664.325 348.058 667.982 334.054 659.286 327.02L650.481 337.905ZM598.65 295.979L650.481 337.905L659.286 327.02L607.455 285.094L598.65 295.979Z" fill="white" mask="url(#path-48-inside-1_107_111)"/>
</g>
<rect x="6" y="6" width="764" height="455" rx="26" stroke="black" stroke-width="12"/>
<defs>
<filter id="filter0_d_107_111" x="584.271" y="289.181" width="72.8443" height="105.66" filterUnits="userSpaceOnUse" color-interpolation-filters="sRGB">
<feFlood flood-opacity="0" result="BackgroundImageFix"/>
<feColorMatrix in="SourceAlpha" type="matrix" values="0 0 0 0 0 0 0 0 0 0 0 0 0 0 0 0 0 0 127 0" result="hardAlpha"/>
<feOffset dx="-5" dy="8"/>
<feGaussianBlur stdDeviation="2"/>
<feComposite in2="hardAlpha" operator="out"/>
<feColorMatrix type="matrix" values="0 0 0 0 0 0 0 0 0 0 0 0 0 0 0 0 0 0 0.25 0"/>
<feBlend mode="normal" in2="BackgroundImageFix" result="effect1_dropShadow_107_111"/>
<feBlend mode="normal" in="SourceGraphic" in2="effect1_dropShadow_107_111" result="shape"/>
</filter>
</defs>
</svg>
