<svg width="952" height="952" viewBox="0 0 952 952" fill="none" xmlns="http://www.w3.org/2000/svg">
<path d="M0 140C0 62.6802 62.6801 0 140 0H812C889.32 0 952 62.6801 952 140V812C952 889.32 889.32 952 812 952H140C62.6802 952 0 889.32 0 812V140Z" fill="white"/>
<g filter="url(#filter0_d_111_47)">
<path d="M258.265 658.8H307.265V262.6H258.265V216.4H510.965C539.431 216.4 563.931 219.433 584.465 225.5C604.998 231.1 621.798 239.033 634.865 249.3C648.398 259.567 658.198 271.7 664.265 285.7C670.798 299.7 674.065 314.867 674.065 331.2C674.065 348 671.031 362.933 664.965 376C659.365 389.067 651.665 400.267 641.865 409.6C632.065 418.467 620.631 425.933 607.565 432C594.965 438.067 581.898 442.5 568.365 445.3V448.8C582.365 450.667 596.831 454.4 611.765 460C626.698 465.6 640.231 473.3 652.365 483.1C664.498 492.9 674.298 505.033 681.765 519.5C689.698 533.5 693.665 550.067 693.665 569.2C693.665 612.6 679.665 646.2 651.665 670C623.665 693.333 581.431 705 524.965 705H258.265V658.8ZM420.665 655.3H498.365C523.565 655.3 542.931 649 556.465 636.4C570.465 623.8 577.465 606.067 577.465 583.2V550.3C577.465 527.433 570.465 509.7 556.465 497.1C542.931 484.5 523.565 478.2 498.365 478.2H420.665V655.3ZM420.665 429.9H485.765C533.831 429.9 557.865 407.733 557.865 363.4V332.6C557.865 288.267 533.831 266.1 485.765 266.1H420.665V429.9Z" fill="#1E1E1E"/>
</g>
<rect x="418" y="476" width="177" height="185" fill="#1E1E1E"/>
<rect x="388" y="257" width="177" height="185" fill="#1E1E1E"/>
<g filter="url(#filter1_i_111_47)">
<path d="M509.5 277.36C518.075 277.36 525.998 281.934 530.285 289.36L557.788 336.997C562.075 344.422 562.075 353.571 557.788 360.997L530.285 408.634C525.998 416.059 518.075 420.634 509.5 420.634L454.494 420.634C445.919 420.634 437.996 416.059 433.709 408.634L406.206 360.997C401.919 353.571 401.919 344.422 406.206 336.997L433.709 289.36C437.996 281.934 445.919 277.36 454.494 277.36L509.5 277.36Z" fill="white"/>
</g>
<g filter="url(#filter2_i_111_47)">
<path d="M509.5 503.36C518.075 503.36 525.998 507.934 530.285 515.36L557.788 562.997C562.075 570.422 562.075 579.571 557.788 586.997L530.285 634.634C525.998 642.059 518.075 646.634 509.5 646.634L454.494 646.634C445.919 646.634 437.996 642.059 433.709 634.634L406.206 586.997C401.919 579.571 401.919 570.422 406.206 562.997L433.709 515.36C437.996 507.934 445.919 503.36 454.494 503.36L509.5 503.36Z" fill="white"/>
</g>
<defs>
<filter id="filter0_d_111_47" x="228.265" y="216.4" width="475.4" height="528.6" filterUnits="userSpaceOnUse" color-interpolation-filters="sRGB">
<feFlood flood-opacity="0" result="BackgroundImageFix"/>
<feColorMatrix in="SourceAlpha" type="matrix" values="0 0 0 0 0 0 0 0 0 0 0 0 0 0 0 0 0 0 127 0" result="hardAlpha"/>
<feOffset dx="-10" dy="20"/>
<feGaussianBlur stdDeviation="10"/>
<feComposite in2="hardAlpha" operator="out"/>
<feColorMatrix type="matrix" values="0 0 0 0 0 0 0 0 0 0 0 0 0 0 0 0 0 0 0.25 0"/>
<feBlend mode="normal" in2="BackgroundImageFix" result="effect1_dropShadow_111_47"/>
<feBlend mode="normal" in="SourceGraphic" in2="effect1_dropShadow_111_47" result="shape"/>
</filter>
<filter id="filter1_i_111_47" x="392.99" y="277.36" width="168.014" height="163.274" filterUnits="userSpaceOnUse" color-interpolation-filters="sRGB">
<feFlood flood-opacity="0" result="BackgroundImageFix"/>
<feBlend mode="normal" in="SourceGraphic" in2="BackgroundImageFix" result="shape"/>
<feColorMatrix in="SourceAlpha" type="matrix" values="0 0 0 0 0 0 0 0 0 0 0 0 0 0 0 0 0 0 127 0" result="hardAlpha"/>
<feOffset dx="-10" dy="20"/>
<feGaussianBlur stdDeviation="10"/>
<feComposite in2="hardAlpha" operator="arithmetic" k2="-1" k3="1"/>
<feColorMatrix type="matrix" values="0 0 0 0 0 0 0 0 0 0 0 0 0 0 0 0 0 0 0.25 0"/>
<feBlend mode="normal" in2="shape" result="effect1_innerShadow_111_47"/>
</filter>
<filter id="filter2_i_111_47" x="392.99" y="503.36" width="168.014" height="163.274" filterUnits="userSpaceOnUse" color-interpolation-filters="sRGB">
<feFlood flood-opacity="0" result="BackgroundImageFix"/>
<feBlend mode="normal" in="SourceGraphic" in2="BackgroundImageFix" result="shape"/>
<feColorMatrix in="SourceAlpha" type="matrix" values="0 0 0 0 0 0 0 0 0 0 0 0 0 0 0 0 0 0 127 0" result="hardAlpha"/>
<feOffset dx="-10" dy="20"/>
<feGaussianBlur stdDeviation="10"/>
<feComposite in2="hardAlpha" operator="arithmetic" k2="-1" k3="1"/>
<feColorMatrix type="matrix" values="0 0 0 0 0 0 0 0 0 0 0 0 0 0 0 0 0 0 0.25 0"/>
<feBlend mode="normal" in2="shape" result="effect1_innerShadow_111_47"/>
</filter>
</defs>
</svg>
